<svg width="623" height="160" fill="none" xmlns="http://www.w3.org/2000/svg"><g clip-path="url(#a)"><path d="M109.695 27.43V7C49.112 7 0 56.395 0 117.326v24.31h21.195v-5.945c0-53.639 38.06-98.33 88.5-108.262Z" fill="#CDD2EC"/><path d="M130.889 25.364c-7.252 0-14.336.715-21.195 2.066v114.207H21.195v18.364h109.696V25.364h-.002Z" fill="#87A4D0"/><path d="M109.695 37.383c17.29 0 31.305 14.096 31.305 31.485 0 17.388-14.016 31.484-31.305 31.484" fill="#D7880F"/><path d="M41.83 116.964h-2.366v-8.198h2.33c.888 0 1.53.205 1.922.617.392.412.588.894.588 1.445 0 .832-.365 1.397-1.094 1.693 1.059.377 1.588 1.103 1.588 2.181 0 1.508-.989 2.263-2.967 2.263v-.001Zm-1.318-7.286v2.555h.683c.62 0 1.026-.025 1.217-.075.19-.05.37-.174.537-.371.168-.199.252-.46.252-.786s-.087-.627-.263-.856c-.176-.231-.36-.366-.552-.406-.193-.04-.59-.06-1.191-.06h-.683v-.001Zm0 3.527v2.871h1.127c.53 0 .91-.033 1.137-.102.228-.068.423-.215.586-.441.163-.226.244-.512.244-.859 0-.447-.14-.803-.42-1.07-.281-.266-.652-.399-1.112-.399h-1.562Zm9.986-4.65c1.256 0 2.297.456 3.122 1.371.75.834 1.126 1.82 1.126 2.961 0 1.14-.397 2.146-1.19 3.003-.793.856-1.813 1.285-3.058 1.285-1.246 0-2.272-.428-3.065-1.285-.793-.856-1.19-1.857-1.19-3.003 0-1.146.376-2.12 1.126-2.954.826-.919 1.868-1.379 3.13-1.379l-.001.001Zm-.003 1.032c-.872 0-1.622.325-2.249.973-.626.648-.94 1.432-.94 2.351 0 .593.143 1.145.43 1.657.286.513.671.908 1.157 1.188a3.16 3.16 0 0 0 1.602.417c.58 0 1.115-.138 1.6-.417a3.051 3.051 0 0 0 1.159-1.188 3.351 3.351 0 0 0 .429-1.657c0-.919-.315-1.704-.944-2.351-.628-.648-1.377-.973-2.243-.973h-.002Zm6.205-.821h1.05v1.507c.414-.572.89-1.002 1.43-1.288a3.775 3.775 0 0 1 1.803-.429c1.156 0 2.147.42 2.97 1.259.823.838 1.236 1.849 1.236 3.028s-.408 2.229-1.224 3.071c-.815.841-1.8 1.262-2.952 1.262a3.95 3.95 0 0 1-1.788-.407c-.544-.271-1.036-.676-1.475-1.214v4.409H56.7v-11.198Zm4.196.806c-.907 0-1.671.319-2.292.956-.62.637-.93 1.429-.93 2.378a3.4 3.4 0 0 0 .415 1.679c.277.496.673.89 1.188 1.181.516.292 1.06.436 1.634.436a3.04 3.04 0 0 0 1.587-.44 3.233 3.233 0 0 0 1.186-1.23 3.349 3.349 0 0 0 .441-1.656 3.35 3.35 0 0 0-.438-1.655 3.157 3.157 0 0 0-2.792-1.649Zm10.114-1.017c1.256 0 2.297.456 3.122 1.371.75.834 1.126 1.82 1.126 2.961 0 1.14-.397 2.146-1.19 3.003-.793.856-1.813 1.285-3.058 1.285-1.246 0-2.272-.428-3.065-1.285-.793-.856-1.19-1.857-1.19-3.003 0-1.146.376-2.12 1.126-2.954.826-.919 1.868-1.379 3.13-1.379l-.001.001Zm-.004 1.032c-.871 0-1.621.325-2.248.973-.626.648-.94 1.432-.94 2.351 0 .593.143 1.145.43 1.657.286.513.671.908 1.157 1.188.486.279 1.02.417 1.601.417s1.116-.138 1.602-.417a3.052 3.052 0 0 0 1.158-1.188 3.35 3.35 0 0 0 .428-1.657c0-.919-.314-1.704-.943-2.351-.628-.648-1.377-.973-2.243-.973h-.002Zm11.984 3.428h-4.743v3.949h-1.05v-8.198h1.05v3.255h4.743v-3.255h1.05v8.198h-1.05v-3.949Zm10.249 1.229.883.467c-.29.572-.625 1.035-1.004 1.387-.38.352-.808.619-1.282.802a4.474 4.474 0 0 1-1.612.275c-1.33 0-2.37-.438-3.12-1.315-.75-.876-1.124-1.867-1.124-2.972 0-1.039.317-1.966.952-2.78.805-1.035 1.882-1.552 3.231-1.552 1.35 0 2.5.53 3.33 1.59.59.748.89 1.683.9 2.803h-7.335c.02.952.323 1.732.908 2.341.586.609 1.308.913 2.168.913.415 0 .819-.072 1.211-.218a3.164 3.164 0 0 0 1.002-.578c.274-.24.572-.627.892-1.163Zm0-2.207c-.14-.562-.344-1.012-.612-1.349a2.909 2.909 0 0 0-1.062-.815 3.25 3.25 0 0 0-1.388-.309c-.8 0-1.487.26-2.062.777-.421.378-.738.942-.953 1.696h6.076Zm7.289-3.271h1.064v3.63l3.898-3.63h1.281l-3.854 3.656 4.146 4.542h-1.342l-3.53-3.964-.599.505v3.459h-1.064v-3.459l-.584-.505-3.504 3.964h-1.353l4.093-4.55-3.786-3.648h1.281l3.853 3.619v-3.619Zm-82.855 18.518h1.064v3.63l3.898-3.63h1.28l-3.854 3.656 4.147 4.542h-1.342l-3.53-3.964-.6.505v3.459h-1.064v-3.459l-.584-.505-3.503 3.964h-1.353l4.093-4.55-3.786-3.648h1.28l3.854 3.62v-3.62Zm8.896 0v6.065l5.986-6.065h.082v8.198h-1.05v-6.009l-5.94 6.009h-.128v-8.198h1.05Zm10.317 8.198h-2.367v-8.198h2.33c.889 0 1.53.205 1.921.617.392.412.588.894.588 1.445 0 .833-.364 1.397-1.093 1.693 1.058.377 1.589 1.104 1.589 2.181 0 1.508-.99 2.263-2.967 2.263l-.001-.001Zm-1.319-7.286v2.555h.684c.621 0 1.027-.025 1.218-.075.19-.05.37-.174.537-.371.167-.199.252-.46.252-.786s-.088-.627-.264-.856c-.175-.231-.359-.366-.552-.406-.193-.04-.59-.06-1.19-.06h-.685v-.001Zm0 3.527v2.871h1.127c.53 0 .91-.033 1.138-.102a1.12 1.12 0 0 0 .587-.441c.162-.226.244-.512.244-.859 0-.447-.14-.803-.421-1.07-.28-.266-.65-.399-1.111-.399h-1.564Zm9.986-4.65c1.256 0 2.297.457 3.122 1.371.75.834 1.126 1.821 1.126 2.961s-.397 2.146-1.19 3.003c-.792.856-1.812 1.285-3.058 1.285-1.245 0-2.272-.428-3.065-1.285-.792-.856-1.19-1.857-1.19-3.003 0-1.146.376-2.12 1.127-2.954.825-.919 1.868-1.379 3.13-1.379l-.002.001Zm-.003 1.032c-.872 0-1.622.325-2.248.973-.627.648-.94 1.432-.94 2.351 0 .593.142 1.145.429 1.658.285.512.672.907 1.157 1.187a3.163 3.163 0 0 0 1.602.418c.58 0 1.115-.139 1.601-.418a3.056 3.056 0 0 0 1.158-1.187 3.358 3.358 0 0 0 .429-1.658c0-.919-.315-1.704-.943-2.351-.629-.648-1.377-.973-2.244-.973h-.001Zm6.192-.821h6.84v8.198h-1.049v-7.203h-4.742v7.203h-1.05v-8.198h.001Zm10.226 0v6.065l5.986-6.065h.082v8.198h-1.05v-6.009l-5.94 6.009h-.127v-8.198h1.05Zm16.317 1.703-.832.519c-.718-.96-1.698-1.438-2.941-1.438-.993 0-1.817.321-2.473.963a3.155 3.155 0 0 0-.984 2.341c0 .597.151 1.158.453 1.686a3.17 3.17 0 0 0 1.243 1.226c.525.292 1.115.436 1.769.436 1.197 0 2.175-.479 2.933-1.438l.832.549a3.925 3.925 0 0 1-1.57 1.373c-.657.326-1.404.489-2.243.489-1.29 0-2.358-.412-3.207-1.235-.848-.824-1.273-1.827-1.273-3.007 0-.794.199-1.531.596-2.212a4.21 4.21 0 0 1 1.637-1.594c.693-.382 1.47-.572 2.33-.572.54 0 1.06.083 1.561.249a4.33 4.33 0 0 1 1.278.648c.349.266.647.606.892 1.018l-.001-.001Zm7.806 2.546H81.35v3.949H80.3v-8.198h1.05v3.255h4.742v-3.255h1.05v8.198h-1.05v-3.949Zm4.429-1.002h.997c.795 0 1.418.063 1.869.188.45.125.838.402 1.163.833.325.429.488.922.488 1.48 0 .673-.235 1.25-.705 1.728-.47.48-1.182.72-2.138.72h-2.716v-8.198h1.041v3.249Zm.037.964v3.097h1.209c1.421 0 2.132-.503 2.132-1.508a1.72 1.72 0 0 0-.23-.843 1.246 1.246 0 0 0-.668-.58c-.293-.112-.81-.167-1.55-.167h-.893v.001Zm5.925-4.212h1.05v8.198h-1.05v-8.198Zm3.882.001v6.065l5.986-6.065h.082v8.198h-1.049v-6.009l-5.94 6.009h-.128v-8.198h1.049Zm-.149-3.292h.988c.17.261.397.456.683.587.285.131.623.196 1.018.196s.722-.058.967-.173c.244-.116.477-.319.697-.61h.958c-.109.452-.391.83-.842 1.134-.453.304-1.049.456-1.788.456-.739 0-1.333-.149-1.797-.449-.465-.299-.76-.679-.884-1.141Z" fill="#D47215"/></g><path d="M220.541 15.972c-.191 1.94-.287 3.69-.287 5.248 0 1.367.041 2.487.123 3.362h-.943c-.219-2.105-.492-3.663-.82-4.674-.328-1.039-.902-1.79-1.722-2.255-.82-.492-2.077-.738-3.772-.738h-.943c-.984 0-1.708.082-2.173.246-.437.137-.738.437-.902.902-.164.465-.246 1.216-.246 2.255v20.336c0 1.039.109 1.79.328 2.255.219.465.601.779 1.148.943.547.164 1.435.273 2.665.328V45c-1.421-.082-3.43-.123-6.027-.123-2.351 0-4.1.041-5.248.123v-.82c.984-.055 1.695-.164 2.132-.328.465-.164.779-.478.943-.943.164-.465.246-1.216.246-2.255V20.318c0-1.039-.082-1.79-.246-2.255a1.473 1.473 0 0 0-.943-.943c-.437-.164-1.148-.273-2.132-.328v-.82c2.679.082 6.642.123 11.89.123 3.253 0 5.562-.041 6.929-.123Zm22.165 25.584c.656 1.695 1.599 2.57 2.829 2.624V45c-1.093-.082-2.556-.123-4.387-.123-2.351 0-4.1.041-5.248.123v-.82c1.039-.055 1.777-.178 2.214-.369.465-.219.697-.601.697-1.148 0-.465-.164-1.107-.492-1.927l-2.501-6.724h-9.922l-1.681 4.346c-.547 1.476-.82 2.597-.82 3.362 0 .847.287 1.462.861 1.845.601.383 1.503.588 2.706.615V45a89.707 89.707 0 0 0-4.715-.123c-1.23 0-2.255.041-3.075.123v-.82c1.367-.328 2.446-1.517 3.239-3.567l9.635-24.846h.656l10.004 25.789Zm-7.216-8.364-4.592-12.259-4.674 12.259h9.266Zm36.28-16.4c-.984.055-1.708.164-2.173.328-.437.164-.738.478-.902.943-.164.465-.246 1.216-.246 2.255v20.336c0 1.039.082 1.79.246 2.255.164.465.465.779.902.943.465.164 1.189.273 2.173.328V45c-1.148-.082-2.897-.123-5.248-.123-2.569 0-4.578.041-6.027.123v-.82c1.23-.055 2.119-.164 2.665-.328.547-.164.93-.478 1.148-.943.219-.465.328-1.216.328-2.255V20.318c0-1.039-.082-1.79-.246-2.255-.164-.492-.478-.82-.943-.984-.464-.191-1.175-.287-2.132-.287h-.533c-.984 0-1.694.096-2.132.287-.41.164-.697.478-.861.943-.136.437-.246 1.203-.328 2.296a125.22 125.22 0 0 0-.287 3.977c-.273 4.319-.628 7.913-1.066 10.783-.41 2.843-1.189 5.303-2.337 7.38-1.148 2.077-2.774 3.116-4.879 3.116-1.038 0-1.927-.219-2.665-.656-.71-.465-1.066-1.175-1.066-2.132 0-.71.219-1.271.656-1.681.465-.437 1.053-.656 1.763-.656.602 0 1.094.164 1.476.492.41.328.615.765.615 1.312 0 .574-.136 1.052-.41 1.435-.273.355-.724.71-1.353 1.066.246.027.574.041.984.041 1.941 0 3.431-1.162 4.469-3.485 1.039-2.323 1.75-5.07 2.132-8.241.383-3.198.725-7.448 1.025-12.751a7.54 7.54 0 0 0 .041-.902c0-.71-.095-1.244-.287-1.599-.191-.355-.519-.601-.984-.738-.464-.137-1.161-.232-2.091-.287v-.82c1.148.082 2.556.123 4.223.123.41 0 1.025-.027 1.845-.082l1.763-.041 2.747.041a73.7 73.7 0 0 0 3.116.082c2.105 0 3.731-.041 4.879-.123v.82Zm24.456 22.96c0 1.558.095 3.307.287 5.248-1.859-.082-4.989-.123-9.389-.123-5.248 0-9.212.041-11.89.123v-.82c.984-.055 1.694-.164 2.132-.328.464-.164.779-.478.943-.943.164-.465.246-1.216.246-2.255V20.318c0-1.039-.082-1.79-.246-2.255a1.475 1.475 0 0 0-.943-.943c-.438-.164-1.148-.273-2.132-.328v-.82c2.678.082 6.642.123 11.89.123 4.018 0 6.874-.041 8.569-.123-.192 1.804-.287 3.417-.287 4.838 0 1.066.041 1.913.123 2.542h-.943c-.192-1.777-.438-3.089-.738-3.936-.301-.875-.807-1.503-1.517-1.886-.711-.41-1.791-.615-3.239-.615h-3.403c-.984 0-1.709.082-2.173.246-.438.137-.738.437-.902.902-.164.465-.246 1.216-.246 2.255v9.676h2.706c.956 0 1.694-.219 2.214-.656.519-.465.861-.998 1.025-1.599.191-.629.341-1.408.451-2.337l.123-.82h.943a54.523 54.523 0 0 0-.123 3.854v1.968c0 1.394.082 3.335.246 5.822h-.943c-.028-.191-.11-.847-.246-1.968-.137-1.148-.52-2.009-1.148-2.583-.602-.574-1.449-.861-2.542-.861h-2.706v9.84c0 1.039.082 1.79.246 2.255.164.465.464.779.902.943.464.137 1.189.205 2.173.205h2.993c1.694 0 2.979-.219 3.854-.656.902-.465 1.558-1.189 1.968-2.173.41-1.011.71-2.487.902-4.428h.943c-.082.738-.123 1.722-.123 2.952Zm11.126-6.478v7.38c0 1.039.109 1.79.328 2.255.219.465.601.779 1.148.943.547.164 1.435.273 2.665.328V45c-1.421-.082-3.43-.123-6.027-.123-2.351 0-4.1.041-5.248.123v-.82c.984-.055 1.695-.164 2.132-.328.465-.164.779-.478.943-.943.164-.465.246-1.216.246-2.255V20.318c0-1.039-.082-1.79-.246-2.255a1.473 1.473 0 0 0-.943-.943c-.437-.164-1.148-.273-2.132-.328v-.82c1.148.082 2.815.123 5.002.123l4.428-.041a33.904 33.904 0 0 1 1.763-.041c3.198 0 5.644.738 7.339 2.214 1.695 1.449 2.542 3.403 2.542 5.863a9.763 9.763 0 0 1-1.025 4.346c-.656 1.367-1.79 2.515-3.403 3.444-1.585.93-3.704 1.394-6.355 1.394h-3.157Zm3.034-16.482c-.847 0-1.49.096-1.927.287-.41.191-.697.533-.861 1.025-.164.492-.246 1.23-.246 2.214v12.136h2.747c2.679 0 4.524-.71 5.535-2.132 1.039-1.449 1.558-3.376 1.558-5.781 0-2.651-.533-4.606-1.599-5.863-1.039-1.257-2.774-1.886-5.207-1.886Zm34.807 22.96c0 1.558.096 3.307.287 5.248-1.858-.082-4.988-.123-9.389-.123-5.248 0-9.211.041-11.89.123v-.82c.984-.055 1.695-.164 2.132-.328.465-.164.779-.478.943-.943.164-.465.246-1.216.246-2.255V20.318c0-1.039-.082-1.79-.246-2.255a1.473 1.473 0 0 0-.943-.943c-.437-.164-1.148-.273-2.132-.328v-.82c2.679.082 6.642.123 11.89.123 4.018 0 6.875-.041 8.569-.123-.191 1.804-.287 3.417-.287 4.838 0 1.066.041 1.913.123 2.542h-.943c-.191-1.777-.437-3.089-.738-3.936-.3-.875-.806-1.503-1.517-1.886-.71-.41-1.79-.615-3.239-.615h-3.403c-.984 0-1.708.082-2.173.246-.437.137-.738.437-.902.902-.164.465-.246 1.216-.246 2.255v9.676h2.706c.957 0 1.695-.219 2.214-.656.52-.465.861-.998 1.025-1.599.192-.629.342-1.408.451-2.337l.123-.82h.943a54.523 54.523 0 0 0-.123 3.854v1.968c0 1.394.082 3.335.246 5.822h-.943a187.19 187.19 0 0 1-.246-1.968c-.136-1.148-.519-2.009-1.148-2.583-.601-.574-1.448-.861-2.542-.861h-2.706v9.84c0 1.039.082 1.79.246 2.255.164.465.465.779.902.943.465.137 1.189.205 2.173.205h2.993c1.695 0 2.98-.219 3.854-.656.902-.465 1.558-1.189 1.968-2.173.41-1.011.711-2.487.902-4.428h.943c-.082.738-.123 1.722-.123 2.952Zm27.322-22.96c-.984.055-1.708.164-2.173.328-.437.164-.738.478-.902.943-.164.465-.246 1.216-.246 2.255v20.336c0 1.039.082 1.79.246 2.255.164.465.465.779.902.943.465.164 1.189.273 2.173.328V45c-1.148-.082-2.897-.123-5.248-.123-2.187 0-3.922.041-5.207.123v-.82c.984-.055 1.695-.164 2.132-.328.465-.164.779-.478.943-.943.164-.465.246-1.216.246-2.255v-9.43h-4.1c-1.039 0-1.845.232-2.419.697-.574.465-1.011 1.08-1.312 1.845-.273.765-.574 1.859-.902 3.28l-.902 4.1c-.355 1.64-.902 2.788-1.64 3.444-.711.656-1.626.984-2.747.984-1.039 0-1.872-.205-2.501-.615-.629-.41-1.257-1.08-1.886-2.009l.615-.451c.41.547.765.943 1.066 1.189.328.246.724.369 1.189.369.519 0 .916-.232 1.189-.697.273-.492.547-1.38.82-2.665l.943-4.182c.383-1.722 1.011-2.98 1.886-3.772.875-.793 2.214-1.34 4.018-1.64l.533-.082c-2.761-.41-4.756-1.353-5.986-2.829-1.203-1.503-1.804-3.184-1.804-5.043 0-2.105.847-3.813 2.542-5.125 1.722-1.34 4.168-2.009 7.339-2.009.656 0 1.244.014 1.763.041l4.428.041c2.187 0 3.854-.041 5.002-.123v.82Zm-16.974 6.519c0 2.269.506 4.018 1.517 5.248 1.011 1.23 2.87 1.845 5.576 1.845h2.747V20.318c0-.984-.082-1.722-.246-2.214-.164-.492-.465-.834-.902-1.025-.41-.191-1.039-.287-1.886-.287-2.378 0-4.114.56-5.207 1.681-1.066 1.12-1.599 2.733-1.599 4.838Zm-140.33 47.087c1.64 0 3.034.232 4.182.697 1.148.465 2.269 1.12 3.362 1.968.301.246.56.369.779.369.547 0 .902-.82 1.066-2.46h.943c-.109 1.777-.164 4.92-.164 9.43h-.943c-.301-1.777-.574-3.048-.82-3.813a6.779 6.779 0 0 0-1.23-2.255 7.402 7.402 0 0 0-3.157-2.378c-1.257-.547-2.624-.82-4.1-.82-1.777 0-3.335.588-4.674 1.763-1.312 1.175-2.337 2.856-3.075 5.043-.738 2.16-1.107 4.701-1.107 7.626 0 2.98.396 5.535 1.189 7.667.793 2.132 1.886 3.758 3.28 4.879 1.421 1.093 3.02 1.64 4.797 1.64 1.367 0 2.692-.26 3.977-.779 1.285-.52 2.296-1.298 3.034-2.337a7.87 7.87 0 0 0 1.189-2.46c.246-.875.478-2.214.697-4.018h.943c0 4.701.055 7.981.164 9.84h-.943c-.082-.875-.205-1.49-.369-1.845-.137-.383-.342-.574-.615-.574-.219 0-.506.11-.861.328-1.23.875-2.405 1.544-3.526 2.009-1.121.437-2.474.656-4.059.656-2.597 0-4.879-.588-6.847-1.763-1.941-1.175-3.458-2.87-4.551-5.084-1.066-2.241-1.599-4.906-1.599-7.995 0-3.007.547-5.672 1.64-7.995 1.121-2.323 2.665-4.127 4.633-5.412 1.995-1.285 4.25-1.927 6.765-1.927Zm28.228 0c2.596 0 4.865.588 6.806 1.763 1.968 1.175 3.485 2.884 4.551 5.125 1.093 2.214 1.64 4.865 1.64 7.954 0 3.007-.561 5.672-1.681 7.995-1.094 2.323-2.638 4.127-4.633 5.412-1.968 1.285-4.21 1.927-6.724 1.927-2.597 0-4.879-.588-6.847-1.763-1.941-1.175-3.458-2.87-4.551-5.084-1.066-2.241-1.599-4.906-1.599-7.995 0-3.007.546-5.672 1.64-7.995 1.12-2.323 2.665-4.127 4.633-5.412 1.995-1.285 4.25-1.927 6.765-1.927Zm-.164.738c-1.75 0-3.294.615-4.633 1.845-1.312 1.203-2.337 2.897-3.075 5.084-.711 2.187-1.066 4.688-1.066 7.503 0 2.843.396 5.344 1.189 7.503.82 2.16 1.913 3.827 3.28 5.002 1.366 1.175 2.897 1.763 4.592 1.763 1.749 0 3.28-.601 4.592-1.804 1.339-1.23 2.364-2.938 3.075-5.125.738-2.187 1.107-4.688 1.107-7.503 0-2.843-.41-5.344-1.23-7.503-.793-2.16-1.873-3.827-3.239-5.002-1.367-1.175-2.898-1.763-4.592-1.763Zm30.356 13.53c3.007.41 5.152 1.285 6.437 2.624 1.285 1.312 1.927 2.897 1.927 4.756 0 1.558-.396 2.938-1.189 4.141-.793 1.203-1.927 2.146-3.403 2.829-1.476.656-3.225.984-5.248.984-.738 0-1.367-.014-1.886-.041a165.28 165.28 0 0 0-5.166-.082c-2.241 0-3.936.041-5.084.123v-.82c.984-.055 1.695-.164 2.132-.328.465-.164.779-.478.943-.943.164-.465.246-1.216.246-2.255V75.318c0-1.039-.082-1.79-.246-2.255a1.473 1.473 0 0 0-.943-.943c-.437-.164-1.148-.273-2.132-.328v-.82c1.148.082 2.815.123 5.002.123l4.428-.041a33.904 33.904 0 0 1 1.763-.041c2.788 0 4.92.588 6.396 1.763 1.503 1.175 2.255 2.733 2.255 4.674 0 1.585-.506 3.007-1.517 4.264-.984 1.257-2.556 2.214-4.715 2.87v.082Zm-3.444-12.874c-.847 0-1.49.096-1.927.287-.41.191-.697.533-.861 1.025-.164.492-.246 1.23-.246 2.214v9.266h2.747c2.241 0 3.799-.601 4.674-1.804.902-1.23 1.353-2.856 1.353-4.879 0-2.05-.451-3.58-1.353-4.592-.902-1.011-2.364-1.517-4.387-1.517Zm.041 27.265c5.111 0 7.667-2.392 7.667-7.175 0-2.16-.588-3.8-1.763-4.92-1.148-1.12-2.993-1.681-5.535-1.681h-3.444v10.373c0 .984.082 1.708.246 2.173.164.465.451.793.861.984.437.164 1.093.246 1.968.246Zm22.19-10.783v7.38c0 1.039.109 1.79.328 2.255.218.465.601.779 1.148.943.546.164 1.435.273 2.665.328v.82c-1.422-.082-3.431-.123-6.027-.123-2.351 0-4.1.041-5.248.123v-.82c.984-.055 1.694-.164 2.132-.328.464-.164.779-.478.943-.943.164-.465.246-1.216.246-2.255V75.318c0-1.039-.082-1.79-.246-2.255a1.475 1.475 0 0 0-.943-.943c-.438-.164-1.148-.273-2.132-.328v-.82c1.148.082 2.815.123 5.002.123l4.428-.041a33.904 33.904 0 0 1 1.763-.041c3.198 0 5.644.738 7.339 2.214 1.694 1.449 2.542 3.403 2.542 5.863a9.763 9.763 0 0 1-1.025 4.346c-.656 1.367-1.791 2.515-3.403 3.444-1.586.93-3.704 1.394-6.355 1.394h-3.157Zm3.034-16.482c-.848 0-1.49.096-1.927.287-.41.191-.697.533-.861 1.025-.164.492-.246 1.23-.246 2.214v12.136h2.747c2.678 0 4.523-.71 5.535-2.132 1.038-1.449 1.558-3.376 1.558-5.781 0-2.651-.533-4.606-1.599-5.863-1.039-1.257-2.775-1.886-5.207-1.886Zm34.807 22.96c0 1.558.096 3.307.287 5.248-1.859-.082-4.988-.123-9.389-.123-5.248 0-9.211.041-11.89.123v-.82c.984-.055 1.695-.164 2.132-.328.465-.164.779-.478.943-.943.164-.465.246-1.216.246-2.255V75.318c0-1.039-.082-1.79-.246-2.255a1.473 1.473 0 0 0-.943-.943c-.437-.164-1.148-.273-2.132-.328v-.82c2.679.082 6.642.123 11.89.123 4.018 0 6.874-.041 8.569-.123-.191 1.804-.287 3.417-.287 4.838 0 1.066.041 1.913.123 2.542h-.943c-.191-1.777-.437-3.089-.738-3.936-.301-.875-.806-1.503-1.517-1.886-.711-.41-1.79-.615-3.239-.615h-3.403c-.984 0-1.708.082-2.173.246-.437.137-.738.437-.902.902-.164.465-.246 1.216-.246 2.255v9.676h2.706c.957 0 1.695-.219 2.214-.656.519-.465.861-.998 1.025-1.599.191-.629.342-1.408.451-2.337l.123-.82h.943a54.523 54.523 0 0 0-.123 3.854v1.968c0 1.394.082 3.335.246 5.822h-.943a187.19 187.19 0 0 1-.246-1.968c-.137-1.148-.519-2.009-1.148-2.583-.601-.574-1.449-.861-2.542-.861h-2.706v9.84c0 1.039.082 1.79.246 2.255.164.465.465.779.902.943.465.137 1.189.205 2.173.205h2.993c1.695 0 2.979-.219 3.854-.656.902-.465 1.558-1.189 1.968-2.173.41-1.011.711-2.487.902-4.428h.943c-.082.738-.123 1.722-.123 2.952Zm36.259-22.96c-.984.055-1.708.164-2.173.328-.437.164-.738.478-.902.943-.164.465-.246 1.216-.246 2.255v20.336c0 1.039.082 1.79.246 2.255.164.465.465.779.902.943.465.164 1.189.273 2.173.328v.82c-1.257-.082-2.993-.123-5.207-.123-2.35 0-4.1.041-5.248.123v-.82c.984-.055 1.695-.164 2.132-.328.465-.164.779-.478.943-.943.164-.465.246-1.216.246-2.255V73.678l-9.881 26.527h-.656l-10.332-26.609v21.648c0 1.066.082 1.859.246 2.378a2 2 0 0 0 1.066 1.148c.52.219 1.326.355 2.419.41v.82c-.984-.082-2.378-.123-4.182-.123-1.64 0-2.911.041-3.813.123v-.82c.957-.055 1.668-.191 2.132-.41.465-.246.779-.629.943-1.148.164-.547.246-1.34.246-2.378V75.318c0-1.039-.082-1.79-.246-2.255a1.473 1.473 0 0 0-.943-.943c-.437-.164-1.148-.273-2.132-.328v-.82c.902.082 2.173.123 3.813.123 1.422 0 2.583-.041 3.485-.123l9.02 23.739 8.815-23.616h1.927c2.214 0 3.95-.041 5.207-.123v.82Zm24.44 22.96c0 1.558.096 3.307.287 5.248-1.859-.082-4.988-.123-9.389-.123-5.248 0-9.211.041-11.89.123v-.82c.984-.055 1.695-.164 2.132-.328.465-.164.779-.478.943-.943.164-.465.246-1.216.246-2.255V75.318c0-1.039-.082-1.79-.246-2.255a1.473 1.473 0 0 0-.943-.943c-.437-.164-1.148-.273-2.132-.328v-.82c2.679.082 6.642.123 11.89.123 4.018 0 6.874-.041 8.569-.123-.191 1.804-.287 3.417-.287 4.838 0 1.066.041 1.913.123 2.542h-.943c-.191-1.777-.437-3.089-.738-3.936-.301-.875-.806-1.503-1.517-1.886-.711-.41-1.79-.615-3.239-.615h-3.403c-.984 0-1.708.082-2.173.246-.437.137-.738.437-.902.902-.164.465-.246 1.216-.246 2.255v9.676h2.706c.957 0 1.695-.219 2.214-.656.519-.465.861-.998 1.025-1.599.191-.629.342-1.408.451-2.337l.123-.82h.943a54.523 54.523 0 0 0-.123 3.854v1.968c0 1.394.082 3.335.246 5.822h-.943a187.19 187.19 0 0 1-.246-1.968c-.137-1.148-.519-2.009-1.148-2.583-.601-.574-1.449-.861-2.542-.861H377.1v9.84c0 1.039.082 1.79.246 2.255.164.465.465.779.902.943.465.137 1.189.205 2.173.205h2.993c1.695 0 2.979-.219 3.854-.656.902-.465 1.558-1.189 1.968-2.173.41-1.011.711-2.487.902-4.428h.943c-.082.738-.123 1.722-.123 2.952Zm31.586-22.96c-.984.055-1.709.164-2.173.328-.438.164-.738.478-.902.943-.164.465-.246 1.216-.246 2.255v20.336c0 1.039.082 1.79.246 2.255.164.465.464.779.902.943.464.164 1.189.273 2.173.328v.82c-1.148-.082-2.898-.123-5.248-.123-2.214 0-3.95.041-5.207.123v-.82c.984-.055 1.694-.164 2.132-.328.464-.164.779-.478.943-.943.164-.465.246-1.216.246-2.255v-9.84h-13.325v9.84c0 1.039.082 1.79.246 2.255.164.465.464.779.902.943.464.164 1.189.273 2.173.328v.82c-1.258-.082-2.993-.123-5.207-.123-2.351 0-4.1.041-5.248.123v-.82c.984-.055 1.694-.164 2.132-.328.464-.164.779-.478.943-.943.164-.465.246-1.216.246-2.255V75.318c0-1.039-.082-1.79-.246-2.255a1.475 1.475 0 0 0-.943-.943c-.438-.164-1.148-.273-2.132-.328v-.82c1.148.082 2.897.123 5.248.123 2.186 0 3.922-.041 5.207-.123v.82c-.984.055-1.709.164-2.173.328-.438.164-.738.478-.902.943-.164.465-.246 1.216-.246 2.255v9.676h13.325v-9.676c0-1.039-.082-1.79-.246-2.255a1.475 1.475 0 0 0-.943-.943c-.438-.164-1.148-.273-2.132-.328v-.82c1.257.082 2.993.123 5.207.123 2.35 0 4.1-.041 5.248-.123v.82Zm31.03 0c-.984.055-1.709.164-2.173.328-.438.164-.738.478-.902.943-.164.465-.246 1.216-.246 2.255v20.336c0 1.039.082 1.79.246 2.255.164.465.464.779.902.943.464.164 1.189.273 2.173.328v.82c-1.148-.082-2.898-.123-5.248-.123-2.214 0-3.95.041-5.207.123v-.82c.984-.055 1.694-.164 2.132-.328.464-.164.779-.478.943-.943.164-.465.246-1.216.246-2.255v-9.84h-13.325v9.84c0 1.039.082 1.79.246 2.255.164.465.464.779.902.943.464.164 1.189.273 2.173.328v.82c-1.258-.082-2.993-.123-5.207-.123-2.351 0-4.1.041-5.248.123v-.82c.984-.055 1.694-.164 2.132-.328.464-.164.779-.478.943-.943.164-.465.246-1.216.246-2.255V75.318c0-1.039-.082-1.79-.246-2.255a1.475 1.475 0 0 0-.943-.943c-.438-.164-1.148-.273-2.132-.328v-.82c1.148.082 2.897.123 5.248.123 2.186 0 3.922-.041 5.207-.123v.82c-.984.055-1.709.164-2.173.328-.438.164-.738.478-.902.943-.164.465-.246 1.216-.246 2.255v9.676h13.325v-9.676c0-1.039-.082-1.79-.246-2.255a1.475 1.475 0 0 0-.943-.943c-.438-.164-1.148-.273-2.132-.328v-.82c1.257.082 2.993.123 5.207.123 2.35 0 4.1-.041 5.248-.123v.82Zm16.606-1.394c2.596 0 4.865.588 6.806 1.763 1.968 1.175 3.485 2.884 4.551 5.125 1.093 2.214 1.64 4.865 1.64 7.954 0 3.007-.561 5.672-1.681 7.995-1.094 2.323-2.638 4.127-4.633 5.412-1.968 1.285-4.21 1.927-6.724 1.927-2.597 0-4.879-.588-6.847-1.763-1.941-1.175-3.458-2.87-4.551-5.084-1.066-2.241-1.599-4.906-1.599-7.995 0-3.007.546-5.672 1.64-7.995 1.12-2.323 2.665-4.127 4.633-5.412 1.995-1.285 4.25-1.927 6.765-1.927Zm-.164.738c-1.75 0-3.294.615-4.633 1.845-1.312 1.203-2.337 2.897-3.075 5.084-.711 2.187-1.066 4.688-1.066 7.503 0 2.843.396 5.344 1.189 7.503.82 2.16 1.913 3.827 3.28 5.002 1.366 1.175 2.897 1.763 4.592 1.763 1.749 0 3.28-.601 4.592-1.804 1.339-1.23 2.364-2.938 3.075-5.125.738-2.187 1.107-4.688 1.107-7.503 0-2.843-.41-5.344-1.23-7.503-.793-2.16-1.873-3.827-3.239-5.002-1.367-1.175-2.898-1.763-4.592-1.763Zm35.563-.164c-.191 1.94-.287 3.69-.287 5.248 0 1.367.041 2.487.123 3.362h-.943c-.219-2.105-.492-3.663-.82-4.674-.328-1.039-.902-1.79-1.722-2.255-.82-.492-2.077-.738-3.772-.738h-.943c-.984 0-1.708.082-2.173.246-.437.137-.738.437-.902.902-.164.465-.246 1.216-.246 2.255v20.336c0 1.039.109 1.79.328 2.255.219.465.601.779 1.148.943.547.164 1.435.273 2.665.328v.82c-1.421-.082-3.43-.123-6.027-.123-2.351 0-4.1.041-5.248.123v-.82c.984-.055 1.695-.164 2.132-.328.465-.164.779-.478.943-.943.164-.465.246-1.216.246-2.255V75.318c0-1.039-.082-1.79-.246-2.255a1.473 1.473 0 0 0-.943-.943c-.437-.164-1.148-.273-2.132-.328v-.82c2.679.082 6.642.123 11.89.123 3.253 0 5.562-.041 6.929-.123Zm16.331-.574c2.597 0 4.866.588 6.806 1.763 1.968 1.175 3.485 2.884 4.551 5.125 1.094 2.214 1.64 4.865 1.64 7.954 0 3.007-.56 5.672-1.681 7.995-1.093 2.323-2.637 4.127-4.633 5.412-1.968 1.285-4.209 1.927-6.724 1.927-2.596 0-4.879-.588-6.847-1.763-1.94-1.175-3.457-2.87-4.551-5.084-1.066-2.241-1.599-4.906-1.599-7.995 0-3.007.547-5.672 1.64-7.995 1.121-2.323 2.665-4.127 4.633-5.412 1.996-1.285 4.251-1.927 6.765-1.927Zm-.164.738c-1.749 0-3.293.615-4.633 1.845-1.312 1.203-2.337 2.897-3.075 5.084-.71 2.187-1.066 4.688-1.066 7.503 0 2.843.397 5.344 1.189 7.503.82 2.16 1.914 3.827 3.28 5.002 1.367 1.175 2.898 1.763 4.592 1.763 1.75 0 3.28-.601 4.592-1.804 1.34-1.23 2.365-2.938 3.075-5.125.738-2.187 1.107-4.688 1.107-7.503 0-2.843-.41-5.344-1.23-7.503-.792-2.16-1.872-3.827-3.239-5.002-1.366-1.175-2.897-1.763-4.592-1.763Zm-291.611 55.656c-.984.055-1.708.164-2.173.328-.437.164-.738.478-.902.943-.164.465-.246 1.216-.246 2.255v20.336c0 1.039.082 1.79.246 2.255.164.465.465.779.902.943.465.164 1.189.273 2.173.328v.82c-1.148-.082-2.897-.123-5.248-.123-2.187 0-3.922.041-5.207.123v-.82c.984-.055 1.695-.164 2.132-.328.465-.164.779-.478.943-.943.164-.465.246-1.216.246-2.255v-19.393l-14.145 20.049c.027.793.137 1.394.328 1.804.191.383.506.642.943.779.437.137 1.121.232 2.05.287v.82c-1.257-.082-2.993-.123-5.207-.123-2.351 0-4.1.041-5.248.123v-.82c.984-.055 1.695-.164 2.132-.328.465-.164.779-.478.943-.943.164-.465.246-1.216.246-2.255v-20.336c0-1.039-.082-1.79-.246-2.255a1.472 1.472 0 0 0-.943-.943c-.437-.164-1.148-.273-2.132-.328v-.82c1.148.082 2.897.123 5.248.123 2.187 0 3.922-.041 5.207-.123v.82c-.984.055-1.708.164-2.173.328-.437.164-.738.478-.902.943-.164.465-.246 1.216-.246 2.255v19.393l14.145-20.049c-.027-.793-.137-1.38-.328-1.763a1.486 1.486 0 0 0-.943-.82c-.437-.137-1.121-.232-2.05-.287v-.82c1.285.082 3.02.123 5.207.123 2.351 0 4.1-.041 5.248-.123v.82Zm16.627-1.394c1.64 0 3.034.232 4.182.697 1.148.465 2.268 1.121 3.362 1.968.3.246.56.369.779.369.546 0 .902-.82 1.066-2.46h.943c-.11 1.777-.164 4.92-.164 9.43h-.943c-.301-1.777-.574-3.048-.82-3.813-.246-.793-.656-1.544-1.23-2.255a7.406 7.406 0 0 0-3.157-2.378c-1.258-.547-2.624-.82-4.1-.82-1.777 0-3.335.588-4.674 1.763-1.312 1.175-2.337 2.856-3.075 5.043-.738 2.159-1.107 4.701-1.107 7.626 0 2.979.396 5.535 1.189 7.667.792 2.132 1.886 3.758 3.28 4.879 1.421 1.093 3.02 1.64 4.797 1.64 1.366 0 2.692-.26 3.977-.779 1.284-.519 2.296-1.298 3.034-2.337a7.885 7.885 0 0 0 1.189-2.46c.246-.875.478-2.214.697-4.018h.943c0 4.701.054 7.981.164 9.84h-.943c-.082-.875-.205-1.49-.369-1.845-.137-.383-.342-.574-.615-.574-.219 0-.506.109-.861.328-1.23.875-2.406 1.544-3.526 2.009-1.121.437-2.474.656-4.059.656-2.597 0-4.879-.588-6.847-1.763-1.941-1.175-3.458-2.87-4.551-5.084-1.066-2.241-1.599-4.906-1.599-7.995 0-3.007.546-5.672 1.64-7.995 1.12-2.323 2.665-4.127 4.633-5.412 1.995-1.285 4.25-1.927 6.765-1.927Zm40.076 27.552c-.601.902-1.216 1.572-1.845 2.009-.628.41-1.476.615-2.542.615-1.093 0-2.009-.314-2.747-.943-.71-.629-1.257-1.79-1.64-3.485l-1.148-5.084c-.328-1.394-.656-2.46-.984-3.198-.3-.765-.82-1.367-1.558-1.804-.71-.465-1.722-.697-3.034-.697h-2.706v10.291c0 1.039.082 1.79.246 2.255.164.465.465.779.902.943.465.164 1.189.273 2.173.328v.82c-1.257-.082-2.993-.123-5.207-.123-2.35 0-4.1.041-5.248.123v-.82c.984-.055 1.695-.164 2.132-.328.465-.164.779-.478.943-.943.164-.465.246-1.216.246-2.255v-20.336c0-1.039-.082-1.79-.246-2.255a1.472 1.472 0 0 0-.943-.943c-.437-.164-1.148-.273-2.132-.328v-.82c1.148.082 2.898.123 5.248.123 2.187 0 3.923-.041 5.207-.123v.82c-.984.055-1.708.164-2.173.328-.437.164-.738.478-.902.943-.164.465-.246 1.216-.246 2.255v9.266c2.023-.027 3.636-.82 4.838-2.378l3.936-5.002c1.394-1.722 2.091-3.034 2.091-3.936 0-.957-.847-1.449-2.542-1.476v-.82c1.558.082 3.13.123 4.715.123 1.504 0 2.665-.041 3.485-.123v.82c-1.858.273-3.471 1.271-4.838 2.993l-7.708 9.84c2.187.082 3.964.56 5.33 1.435 1.394.847 2.337 2.337 2.829 4.469l1.189 5.166c.301 1.312.574 2.2.82 2.665.274.465.67.697 1.189.697.465 0 .848-.123 1.148-.369.328-.246.697-.642 1.107-1.189l.615.451Zm24.548-26.855c1.23 0 2.255-.041 3.075-.123v.82c-.546.137-1.079.492-1.599 1.066-.519.547-1.079 1.408-1.681 2.583l-8.938 17.794-1.681 3.403c-.601 1.23-1.202 2.146-1.804 2.747-.41.41-.888.711-1.435.902a4.941 4.941 0 0 1-1.64.287c-.847 0-1.544-.219-2.091-.656-.519-.437-.779-1.039-.779-1.804 0-.656.205-1.175.615-1.558.41-.41.93-.615 1.558-.615.602 0 1.094.178 1.476.533.41.328.615.793.615 1.394 0 .41-.109.779-.328 1.107a2.237 2.237 0 0 1-.779.738.578.578 0 0 0 .246.041c.711 0 1.34-.26 1.886-.779.574-.519 1.121-1.312 1.64-2.378l1.107-2.296-10.988-20.172c-.492-.902-.929-1.503-1.312-1.804-.355-.328-.71-.492-1.066-.492v-.861c1.066.082 2.269.123 3.608.123 2.652 0 4.565-.041 5.74-.123v.861c-1.913 0-2.87.519-2.87 1.558 0 .41.137.888.41 1.435l8.364 15.58 6.437-12.915c.738-1.449 1.107-2.624 1.107-3.526 0-.765-.3-1.312-.902-1.64-.601-.328-1.503-.506-2.706-.533v-.82c1.558.082 3.13.123 4.715.123Zm17.055-.697c1.64 0 3.034.232 4.182.697 1.148.465 2.269 1.121 3.362 1.968.301.246.561.369.779.369.547 0 .902-.82 1.066-2.46h.943c-.109 1.777-.164 4.92-.164 9.43h-.943c-.3-1.777-.574-3.048-.82-3.813-.246-.793-.656-1.544-1.23-2.255a7.4 7.4 0 0 0-3.157-2.378c-1.257-.547-2.624-.82-4.1-.82-1.776 0-3.334.588-4.674 1.763-1.312 1.175-2.337 2.856-3.075 5.043-.738 2.159-1.107 4.701-1.107 7.626 0 2.979.397 5.535 1.189 7.667.793 2.132 1.886 3.758 3.28 4.879 1.422 1.093 3.021 1.64 4.797 1.64 1.367 0 2.693-.26 3.977-.779 1.285-.519 2.296-1.298 3.034-2.337a7.863 7.863 0 0 0 1.189-2.46c.246-.875.479-2.214.697-4.018h.943c0 4.701.055 7.981.164 9.84h-.943c-.082-.875-.205-1.49-.369-1.845-.136-.383-.341-.574-.615-.574-.218 0-.505.109-.861.328-1.23.875-2.405 1.544-3.526 2.009-1.12.437-2.473.656-4.059.656-2.596 0-4.879-.588-6.847-1.763-1.94-1.175-3.457-2.87-4.551-5.084-1.066-2.241-1.599-4.906-1.599-7.995 0-3.007.547-5.672 1.64-7.995 1.121-2.323 2.665-4.127 4.633-5.412 1.996-1.285 4.251-1.927 6.765-1.927Zm28.228 0c1.64 0 3.034.232 4.182.697 1.148.465 2.269 1.121 3.362 1.968.301.246.56.369.779.369.547 0 .902-.82 1.066-2.46h.943c-.109 1.777-.164 4.92-.164 9.43h-.943c-.301-1.777-.574-3.048-.82-3.813-.246-.793-.656-1.544-1.23-2.255a7.4 7.4 0 0 0-3.157-2.378c-1.257-.547-2.624-.82-4.1-.82-1.777 0-3.335.588-4.674 1.763-1.312 1.175-2.337 2.856-3.075 5.043-.738 2.159-1.107 4.701-1.107 7.626 0 2.979.396 5.535 1.189 7.667.793 2.132 1.886 3.758 3.28 4.879 1.421 1.093 3.02 1.64 4.797 1.64 1.367 0 2.692-.26 3.977-.779 1.285-.519 2.296-1.298 3.034-2.337a7.863 7.863 0 0 0 1.189-2.46c.246-.875.478-2.214.697-4.018h.943c0 4.701.055 7.981.164 9.84h-.943c-.082-.875-.205-1.49-.369-1.845-.137-.383-.342-.574-.615-.574-.219 0-.506.109-.861.328-1.23.875-2.405 1.544-3.526 2.009-1.121.437-2.474.656-4.059.656-2.597 0-4.879-.588-6.847-1.763-1.941-1.175-3.458-2.87-4.551-5.084-1.066-2.241-1.599-4.906-1.599-7.995 0-3.007.547-5.672 1.64-7.995 1.121-2.323 2.665-4.127 4.633-5.412 1.995-1.285 4.25-1.927 6.765-1.927Zm37.289.574c-.192 1.941-.287 3.69-.287 5.248 0 1.367.041 2.487.123 3.362h-.943c-.219-2.105-.492-3.663-.82-4.674-.328-1.039-.902-1.79-1.722-2.255-.82-.492-2.078-.738-3.772-.738h-2.214v23.329c0 1.148.109 1.982.328 2.501.218.519.601.875 1.148 1.066.546.191 1.435.314 2.665.369v.82c-1.422-.082-3.431-.123-6.027-.123-2.734 0-4.756.041-6.068.123v-.82c1.23-.055 2.118-.178 2.665-.369a1.854 1.854 0 0 0 1.148-1.066c.218-.519.328-1.353.328-2.501v-23.329h-2.214c-1.695 0-2.952.246-3.772.738-.82.465-1.394 1.216-1.722 2.255-.328 1.011-.602 2.569-.82 4.674h-.943c.082-.875.123-1.995.123-3.362 0-1.558-.096-3.307-.287-5.248 2.268.082 6.122.123 11.562.123 5.412 0 9.252-.041 11.521-.123Zm16.526 13.694c3.007.41 5.153 1.285 6.437 2.624 1.285 1.312 1.927 2.897 1.927 4.756 0 1.558-.396 2.938-1.189 4.141-.792 1.203-1.927 2.146-3.403 2.829-1.476.656-3.225.984-5.248.984a37.11 37.11 0 0 1-1.886-.041 164.365 164.365 0 0 0-5.166-.082c-2.241 0-3.936.041-5.084.123v-.82c.984-.055 1.695-.164 2.132-.328.465-.164.779-.478.943-.943.164-.465.246-1.216.246-2.255v-20.336c0-1.039-.082-1.79-.246-2.255a1.472 1.472 0 0 0-.943-.943c-.437-.164-1.148-.273-2.132-.328v-.82c1.148.082 2.816.123 5.002.123l4.428-.041c.52-.027 1.107-.041 1.763-.041 2.788 0 4.92.588 6.396 1.763 1.504 1.175 2.255 2.733 2.255 4.674 0 1.585-.505 3.007-1.517 4.264-.984 1.257-2.555 2.214-4.715 2.87v.082Zm-3.444-12.874c-.847 0-1.489.096-1.927.287-.41.191-.697.533-.861 1.025-.164.492-.246 1.23-.246 2.214v9.266h2.747c2.242 0 3.8-.601 4.674-1.804.902-1.23 1.353-2.856 1.353-4.879 0-2.05-.451-3.581-1.353-4.592-.902-1.011-2.364-1.517-4.387-1.517Zm.041 27.265c5.112 0 7.667-2.392 7.667-7.175 0-2.159-.587-3.799-1.763-4.92-1.148-1.121-2.993-1.681-5.535-1.681h-3.444v10.373c0 .984.082 1.708.246 2.173.164.465.451.793.861.984.438.164 1.094.246 1.968.246Zm36.581-2.501c.656 1.695 1.599 2.569 2.829 2.624v.82c-1.093-.082-2.556-.123-4.387-.123-2.351 0-4.1.041-5.248.123v-.82c1.039-.055 1.777-.178 2.214-.369.465-.219.697-.601.697-1.148 0-.465-.164-1.107-.492-1.927l-2.501-6.724h-9.922l-1.681 4.346c-.547 1.476-.82 2.597-.82 3.362 0 .847.287 1.462.861 1.845.601.383 1.503.588 2.706.615v.82a89.707 89.707 0 0 0-4.715-.123c-1.23 0-2.255.041-3.075.123v-.82c1.367-.328 2.446-1.517 3.239-3.567l9.635-24.846h.656l10.004 25.789Zm-7.216-8.364-4.592-12.259-4.674 12.259h9.266Z" fill="#545973"/><defs><clipPath id="a"><path fill="#fff" transform="translate(0 7)" d="M0 0h141v153H0z"/></clipPath></defs></svg>