<svg width="39" height="23" fill="none" xmlns="http://www.w3.org/2000/svg"><path d="M37.32 1.797c.211-.844 0-1.547-1.265-1.547h-4.149c-1.054 0-1.547.563-1.828 1.195 0 0-2.11 5.133-5.062 8.508-.985.914-1.407 1.266-1.97 1.266-.21 0-.632-.352-.632-1.196V1.797C22.414.742 22.133.25 21.22.25h-6.47c-.703 0-1.055.492-1.055.984 0 .985 1.477 1.196 1.617 4.008v6.117c0 1.336-.21 1.618-.773 1.618-1.406 0-4.781-5.204-6.82-11.11C7.297.742 6.875.25 5.82.25H1.672C.547.25.266.813.266 1.445c0 1.125 1.406 6.54 6.539 13.782 3.445 4.921 8.297 7.523 12.656 7.523 2.602 0 2.953-.563 2.953-1.547 0-4.71-.21-5.203 1.055-5.203.633 0 1.687.352 4.148 2.742 2.813 2.813 3.305 4.008 4.852 4.008h4.148c1.196 0 1.758-.563 1.406-1.758-.773-2.39-6.046-7.453-6.328-7.805-.633-.773-.422-1.124 0-1.828 0 0 5.063-7.171 5.625-9.562Z" fill="#545973"/></svg>