<svg width="623" height="160" viewBox="0 0 623 160" fill="none" xmlns="http://www.w3.org/2000/svg">
<g clip-path="url(#clip0_203_2)">
<path d="M109.695 27.4294V7C49.1121 7 0 56.3951 0 117.326V141.636H21.1952V135.691C21.1952 82.0522 59.2557 37.3618 109.695 27.4294Z" fill="#CDD2EC"/>
<path d="M130.889 25.3644C123.637 25.3644 116.553 26.0791 109.694 27.4305V141.637H21.1952V160.001H130.891V25.3644H130.889Z" fill="#87A4D0"/>
<path d="M109.695 37.3825C126.985 37.3825 141 51.4793 141 68.8675C141 86.2556 126.984 100.352 109.695 100.352" fill="#D7880F"/>
<path d="M41.8303 116.964H39.4635V108.766H41.7938C42.6823 108.766 43.3234 108.971 43.7157 109.383C44.1081 109.795 44.3043 110.277 44.3043 110.828C44.3043 111.66 43.9393 112.225 43.2104 112.521C44.2689 112.898 44.7982 113.624 44.7982 114.702C44.7982 116.21 43.8093 116.965 41.8314 116.965L41.8303 116.964ZM40.5117 109.678V112.233H41.1949C41.8154 112.233 42.2215 112.208 42.412 112.158C42.6025 112.108 42.7816 111.984 42.9492 111.787C43.1169 111.588 43.2013 111.327 43.2013 111.001C43.2013 110.675 43.1135 110.374 42.9378 110.145C42.7622 109.914 42.5785 109.779 42.3858 109.739C42.193 109.699 41.7961 109.679 41.1949 109.679H40.5117V109.678ZM40.5117 113.205V116.076H41.6386C42.169 116.076 42.5489 116.043 42.7759 115.974C43.004 115.906 43.199 115.759 43.3621 115.533C43.5252 115.307 43.6062 115.021 43.6062 114.674C43.6062 114.227 43.4659 113.871 43.1853 113.604C42.9047 113.338 42.534 113.205 42.0744 113.205H40.5128H40.5117Z" fill="#D47215"/>
<path d="M50.4979 108.555C51.7538 108.555 52.7951 109.011 53.6198 109.926C54.3704 110.76 54.7456 111.746 54.7456 112.887C54.7456 114.027 54.3487 115.033 53.5559 115.89C52.7632 116.746 51.7435 117.175 50.4979 117.175C49.2524 117.175 48.2258 116.747 47.4331 115.89C46.6403 115.034 46.2434 114.033 46.2434 112.887C46.2434 111.741 46.6186 110.767 47.3692 109.933C48.195 109.014 49.2375 108.554 50.4991 108.554L50.4979 108.555ZM50.4945 109.587C49.6231 109.587 48.8725 109.912 48.2463 110.56C47.6201 111.208 47.3064 111.992 47.3064 112.911C47.3064 113.504 47.449 114.056 47.7353 114.568C48.0216 115.081 48.4071 115.476 48.8931 115.756C49.379 116.035 49.9139 116.173 50.4945 116.173C51.0751 116.173 51.61 116.035 52.0959 115.756C52.5819 115.477 52.9674 115.081 53.2537 114.568C53.5388 114.056 53.6826 113.504 53.6826 112.911C53.6826 111.992 53.3677 111.207 52.7393 110.56C52.1108 109.912 51.3625 109.587 50.4956 109.587H50.4945Z" fill="#D47215"/>
<path d="M56.7007 108.766H57.7501V110.273C58.1641 109.701 58.6409 109.271 59.1793 108.985C59.7176 108.698 60.3199 108.556 60.9826 108.556C62.1392 108.556 63.1304 108.976 63.9539 109.815C64.7763 110.653 65.1892 111.664 65.1892 112.843C65.1892 114.022 64.7809 115.072 63.9653 115.914C63.1498 116.755 62.1654 117.176 61.0134 117.176C60.3644 117.176 59.7678 117.04 59.2249 116.769C58.6808 116.498 58.1892 116.093 57.7501 115.555V119.964H56.7007V108.767V108.766ZM60.8959 109.572C59.9891 109.572 59.2249 109.891 58.6044 110.528C57.9839 111.165 57.6748 111.957 57.6748 112.906C57.6748 113.528 57.8128 114.088 58.0888 114.585C58.366 115.081 58.7618 115.475 59.2774 115.766C59.7929 116.058 60.337 116.202 60.9107 116.202C61.4845 116.202 62.0035 116.055 62.4985 115.762C62.9947 115.468 63.3893 115.058 63.6836 114.532C63.9779 114.005 64.125 113.453 64.125 112.876C64.125 112.299 63.979 111.742 63.687 111.221C63.3962 110.699 63.0038 110.294 62.5099 110.005C62.016 109.717 61.4776 109.572 60.8948 109.572H60.8959Z" fill="#D47215"/>
<path d="M71.0099 108.555C72.2657 108.555 73.3071 109.011 74.1318 109.926C74.8823 110.76 75.2576 111.746 75.2576 112.887C75.2576 114.027 74.8606 115.033 74.0679 115.89C73.2751 116.746 72.2554 117.175 71.0099 117.175C69.7643 117.175 68.7377 116.747 67.945 115.89C67.1522 115.034 66.7553 114.033 66.7553 112.887C66.7553 111.741 67.1306 110.767 67.8811 109.933C68.7069 109.014 69.7495 108.554 71.011 108.554L71.0099 108.555ZM71.0064 109.587C70.135 109.587 69.3845 109.912 68.7583 110.56C68.132 111.208 67.8184 111.992 67.8184 112.911C67.8184 113.504 67.961 114.056 68.2473 114.568C68.5336 115.081 68.9191 115.476 69.405 115.756C69.8909 116.035 70.4259 116.173 71.0064 116.173C71.587 116.173 72.122 116.035 72.6079 115.756C73.0938 115.477 73.4793 115.081 73.7656 114.568C74.0508 114.056 74.1945 113.504 74.1945 112.911C74.1945 111.992 73.8797 111.207 73.2512 110.56C72.6227 109.912 71.8745 109.587 71.0076 109.587H71.0064Z" fill="#D47215"/>
<path d="M82.9899 113.015H78.2472V116.964H77.1978V108.766H78.2472V112.021H82.9899V108.766H84.0393V116.964H82.9899V113.015Z" fill="#D47215"/>
<path d="M93.2385 114.244L94.1224 114.711C93.8327 115.283 93.4974 115.746 93.1176 116.098C92.7377 116.45 92.31 116.717 91.8355 116.9C91.361 117.082 90.8237 117.175 90.2238 117.175C88.8938 117.175 87.8547 116.737 87.1042 115.86C86.3548 114.984 85.9795 113.993 85.9795 112.888C85.9795 111.849 86.2966 110.922 86.9319 110.108C87.7372 109.073 88.814 108.556 90.1633 108.556C91.5127 108.556 92.6624 109.086 93.4928 110.146C94.0825 110.894 94.3825 111.829 94.3928 112.949H87.0585C87.0779 113.901 87.3813 114.681 87.9665 115.29C88.5516 115.899 89.2736 116.203 90.1337 116.203C90.5489 116.203 90.9526 116.131 91.345 115.985C91.7374 115.84 92.0716 115.648 92.3465 115.407C92.6214 115.167 92.9191 114.78 93.2385 114.244ZM93.2385 112.037C93.0982 111.475 92.8951 111.025 92.6271 110.688C92.359 110.351 92.0054 110.08 91.5652 109.873C91.1249 109.668 90.6629 109.564 90.177 109.564C89.3763 109.564 88.6896 109.824 88.1148 110.341C87.6939 110.719 87.3768 111.283 87.1623 112.037H93.2385Z" fill="#D47215"/>
<path d="M100.528 108.766H101.592V112.396L105.49 108.766H106.771L102.917 112.422L107.063 116.964H105.721L102.191 113L101.592 113.505V116.964H100.528V113.505L99.9442 113L96.4402 116.964H95.0874L99.18 112.414L95.3942 108.766H96.6752L100.528 112.385V108.766Z" fill="#D47215"/>
<path d="M17.6729 127.284H18.7371V130.914L22.6347 127.284H23.9156L20.0614 130.94L24.2076 135.482H22.8662L19.336 131.518L18.736 132.023V135.482H17.6718V132.023L17.0878 131.518L13.5849 135.482H12.2321L16.3247 130.932L12.5389 127.284H13.8199L17.6729 130.904V127.284Z" fill="#D47215"/>
<path d="M26.5687 127.284V133.349L32.5547 127.284H32.6368V135.482H31.5874V129.473L25.647 135.482H25.5193V127.284H26.5687Z" fill="#D47215"/>
<path d="M36.8857 135.482H34.5189V127.284H36.8492C37.7377 127.284 38.3787 127.489 38.77 127.901C39.1624 128.313 39.3585 128.795 39.3585 129.346C39.3585 130.179 38.9935 130.743 38.2647 131.039C39.3232 131.416 39.8536 132.143 39.8536 133.22C39.8536 134.728 38.8647 135.483 36.8868 135.483L36.8857 135.482ZM35.5671 128.196V130.751H36.2515C36.872 130.751 37.278 130.726 37.4685 130.676C37.659 130.626 37.8381 130.502 38.0058 130.305C38.1734 130.106 38.2578 129.845 38.2578 129.519C38.2578 129.193 38.17 128.892 37.9944 128.663C37.8187 128.432 37.6351 128.297 37.4423 128.257C37.2495 128.217 36.8526 128.197 36.2515 128.197H35.5671V128.196ZM35.5671 131.723V134.594H36.694C37.2244 134.594 37.6043 134.561 37.8324 134.492C38.0594 134.424 38.2556 134.277 38.4187 134.051C38.5806 133.825 38.6628 133.539 38.6628 133.192C38.6628 132.745 38.5225 132.389 38.2419 132.122C37.9613 131.856 37.5917 131.723 37.1309 131.723H35.5694H35.5671Z" fill="#D47215"/>
<path d="M45.5533 127.073C46.8091 127.073 47.8505 127.53 48.6752 128.444C49.4257 129.278 49.801 130.265 49.801 131.405C49.801 132.545 49.4041 133.551 48.6113 134.408C47.8186 135.264 46.7989 135.693 45.5533 135.693C44.3077 135.693 43.2812 135.265 42.4884 134.408C41.6957 133.552 41.2988 132.551 41.2988 131.405C41.2988 130.259 41.674 129.285 42.4246 128.451C43.2504 127.532 44.2929 127.072 45.5545 127.072L45.5533 127.073ZM45.5499 128.105C44.6784 128.105 43.9279 128.43 43.3017 129.078C42.6755 129.726 42.3618 130.51 42.3618 131.429C42.3618 132.022 42.5044 132.574 42.7907 133.087C43.0759 133.599 43.4625 133.994 43.9484 134.274C44.4344 134.553 44.9693 134.692 45.5499 134.692C46.1305 134.692 46.6654 134.553 47.1513 134.274C47.6372 133.995 48.0228 133.599 48.3091 133.087C48.5942 132.574 48.7379 132.022 48.7379 131.429C48.7379 130.51 48.4231 129.725 47.7946 129.078C47.1662 128.43 46.4179 128.105 45.551 128.105H45.5499Z" fill="#D47215"/>
<path d="M51.7424 127.284H58.5827V135.482H57.5333V128.279H52.7906V135.482H51.7412V127.284H51.7424Z" fill="#D47215"/>
<path d="M61.9681 127.284V133.349L67.9541 127.284H68.0362V135.482H66.9868V129.473L61.0465 135.482H60.9187V127.284H61.9681Z" fill="#D47215"/>
<path d="M78.2848 128.987L77.4533 129.506C76.7347 128.546 75.7549 128.068 74.5116 128.068C73.5193 128.068 72.6946 128.389 72.0387 129.031C71.3829 129.674 71.0555 130.454 71.0555 131.372C71.0555 131.969 71.2061 132.53 71.5083 133.058C71.8095 133.585 72.2235 133.994 72.7505 134.284C73.2763 134.576 73.866 134.72 74.5196 134.72C75.7172 134.72 76.6948 134.241 77.4533 133.282L78.2848 133.831C77.8959 134.421 77.3723 134.879 76.7153 135.204C76.0583 135.53 75.3112 135.693 74.4717 135.693C73.1828 135.693 72.114 135.281 71.2654 134.458C70.4167 133.634 69.9924 132.631 69.9924 131.451C69.9924 130.657 70.1909 129.92 70.5878 129.239C70.9848 128.559 71.53 128.027 72.2246 127.645C72.9181 127.263 73.6949 127.073 74.5549 127.073C75.0945 127.073 75.6146 127.156 76.1165 127.322C76.6183 127.487 77.0438 127.704 77.394 127.97C77.743 128.236 78.0407 128.576 78.2859 128.988L78.2848 128.987Z" fill="#D47215"/>
<path d="M86.0913 131.533H81.3485V135.482H80.2991V127.284H81.3485V130.539H86.0913V127.284H87.1406V135.482H86.0913V131.533Z" fill="#D47215"/>
<path d="M90.5192 130.531H91.5172C92.3122 130.531 92.935 130.594 93.3856 130.719C93.8361 130.844 94.2239 131.121 94.549 131.552C94.8741 131.981 95.0372 132.474 95.0372 133.032C95.0372 133.705 94.8022 134.282 94.3323 134.76C93.8624 135.24 93.1495 135.48 92.1936 135.48H89.4778V127.282H90.5192V130.53V130.531ZM90.5568 131.495V134.592H91.7659C93.1871 134.592 93.8977 134.089 93.8977 133.084C93.8977 132.798 93.8213 132.516 93.6685 132.241C93.5156 131.965 93.2932 131.772 93 131.661C92.7069 131.549 92.1902 131.494 91.4499 131.494H90.5568V131.495ZM96.4824 127.283H97.5318V135.481H96.4824V127.283Z" fill="#D47215"/>
<path d="M100.364 127.284V133.349L106.35 127.284H106.432V135.482H105.383V129.473L99.4423 135.482H99.3146V127.284H100.364ZM100.215 123.992H101.203C101.373 124.253 101.6 124.448 101.886 124.579C102.171 124.71 102.509 124.775 102.904 124.775C103.299 124.775 103.626 124.717 103.871 124.602C104.115 124.486 104.348 124.283 104.568 123.992H105.526C105.417 124.444 105.135 124.822 104.684 125.126C104.231 125.43 103.635 125.582 102.896 125.582C102.157 125.582 101.563 125.433 101.099 125.133C100.634 124.834 100.339 124.454 100.215 123.992Z" fill="#D47215"/>
</g>
<path d="M220.541 15.972C220.35 17.9127 220.254 19.662 220.254 21.22C220.254 22.5867 220.295 23.7073 220.377 24.582H219.434C219.215 22.4773 218.942 20.9193 218.614 19.908C218.286 18.8693 217.712 18.1177 216.892 17.653C216.072 17.161 214.815 16.915 213.12 16.915H212.177C211.193 16.915 210.469 16.997 210.004 17.161C209.567 17.2977 209.266 17.5983 209.102 18.063C208.938 18.5277 208.856 19.2793 208.856 20.318V40.654C208.856 41.6927 208.965 42.4443 209.184 42.909C209.403 43.3737 209.785 43.688 210.332 43.852C210.879 44.016 211.767 44.1253 212.997 44.18V45C211.576 44.918 209.567 44.877 206.97 44.877C204.619 44.877 202.87 44.918 201.722 45V44.18C202.706 44.1253 203.417 44.016 203.854 43.852C204.319 43.688 204.633 43.3737 204.797 42.909C204.961 42.4443 205.043 41.6927 205.043 40.654V20.318C205.043 19.2793 204.961 18.5277 204.797 18.063C204.633 17.5983 204.319 17.284 203.854 17.12C203.417 16.956 202.706 16.8467 201.722 16.792V15.972C204.401 16.054 208.364 16.095 213.612 16.095C216.865 16.095 219.174 16.054 220.541 15.972ZM242.706 41.556C243.362 43.2507 244.305 44.1253 245.535 44.18V45C244.442 44.918 242.979 44.877 241.148 44.877C238.797 44.877 237.048 44.918 235.9 45V44.18C236.939 44.1253 237.677 44.0023 238.114 43.811C238.579 43.5923 238.811 43.2097 238.811 42.663C238.811 42.1983 238.647 41.556 238.319 40.736L235.818 34.012H225.896L224.215 38.358C223.668 39.834 223.395 40.9547 223.395 41.72C223.395 42.5673 223.682 43.1823 224.256 43.565C224.857 43.9477 225.759 44.1527 226.962 44.18V45C225.404 44.918 223.832 44.877 222.247 44.877C221.017 44.877 219.992 44.918 219.172 45V44.18C220.539 43.852 221.618 42.663 222.411 40.613L232.046 15.767H232.702L242.706 41.556ZM235.49 33.192L230.898 20.933L226.224 33.192H235.49ZM271.77 16.792C270.786 16.8467 270.062 16.956 269.597 17.12C269.16 17.284 268.859 17.5983 268.695 18.063C268.531 18.5277 268.449 19.2793 268.449 20.318V40.654C268.449 41.6927 268.531 42.4443 268.695 42.909C268.859 43.3737 269.16 43.688 269.597 43.852C270.062 44.016 270.786 44.1253 271.77 44.18V45C270.622 44.918 268.873 44.877 266.522 44.877C263.953 44.877 261.944 44.918 260.495 45V44.18C261.725 44.1253 262.614 44.016 263.16 43.852C263.707 43.688 264.09 43.3737 264.308 42.909C264.527 42.4443 264.636 41.6927 264.636 40.654V20.318C264.636 19.2793 264.554 18.5277 264.39 18.063C264.226 17.571 263.912 17.243 263.447 17.079C262.983 16.8877 262.272 16.792 261.315 16.792H260.782C259.798 16.792 259.088 16.8877 258.65 17.079C258.24 17.243 257.953 17.5573 257.789 18.022C257.653 18.4593 257.543 19.2247 257.461 20.318C257.379 21.1653 257.284 22.491 257.174 24.295C256.901 28.6137 256.546 32.208 256.108 35.078C255.698 37.9207 254.919 40.3807 253.771 42.458C252.623 44.5353 250.997 45.574 248.892 45.574C247.854 45.574 246.965 45.3553 246.227 44.918C245.517 44.4533 245.161 43.7427 245.161 42.786C245.161 42.0753 245.38 41.515 245.817 41.105C246.282 40.6677 246.87 40.449 247.58 40.449C248.182 40.449 248.674 40.613 249.056 40.941C249.466 41.269 249.671 41.7063 249.671 42.253C249.671 42.827 249.535 43.3053 249.261 43.688C248.988 44.0433 248.537 44.3987 247.908 44.754C248.154 44.7813 248.482 44.795 248.892 44.795C250.833 44.795 252.323 43.6333 253.361 41.31C254.4 38.9867 255.111 36.2397 255.493 33.069C255.876 29.871 256.218 25.6207 256.518 20.318C256.546 20.0993 256.559 19.7987 256.559 19.416C256.559 18.7053 256.464 18.1723 256.272 17.817C256.081 17.4617 255.753 17.2157 255.288 17.079C254.824 16.9423 254.127 16.8467 253.197 16.792V15.972C254.345 16.054 255.753 16.095 257.42 16.095C257.83 16.095 258.445 16.0677 259.265 16.013L261.028 15.972L263.775 16.013C265.033 16.0677 266.071 16.095 266.891 16.095C268.996 16.095 270.622 16.054 271.77 15.972V16.792ZM296.226 39.752C296.226 41.31 296.321 43.0593 296.513 45C294.654 44.918 291.524 44.877 287.124 44.877C281.876 44.877 277.912 44.918 275.234 45V44.18C276.218 44.1253 276.928 44.016 277.366 43.852C277.83 43.688 278.145 43.3737 278.309 42.909C278.473 42.4443 278.555 41.6927 278.555 40.654V20.318C278.555 19.2793 278.473 18.5277 278.309 18.063C278.145 17.5983 277.83 17.284 277.366 17.12C276.928 16.956 276.218 16.8467 275.234 16.792V15.972C277.912 16.054 281.876 16.095 287.124 16.095C291.142 16.095 293.998 16.054 295.693 15.972C295.501 17.776 295.406 19.3887 295.406 20.81C295.406 21.876 295.447 22.7233 295.529 23.352H294.586C294.394 21.5753 294.148 20.2633 293.848 19.416C293.547 18.5413 293.041 17.9127 292.331 17.53C291.62 17.12 290.54 16.915 289.092 16.915H285.689C284.705 16.915 283.98 16.997 283.516 17.161C283.078 17.2977 282.778 17.5983 282.614 18.063C282.45 18.5277 282.368 19.2793 282.368 20.318V29.994H285.074C286.03 29.994 286.768 29.7753 287.288 29.338C287.807 28.8733 288.149 28.3403 288.313 27.739C288.504 27.1103 288.654 26.3313 288.764 25.402L288.887 24.582H289.83C289.748 25.73 289.707 27.0147 289.707 28.436V30.404C289.707 31.798 289.789 33.7387 289.953 36.226H289.01C288.982 36.0347 288.9 35.3787 288.764 34.258C288.627 33.11 288.244 32.249 287.616 31.675C287.014 31.101 286.167 30.814 285.074 30.814H282.368V40.654C282.368 41.6927 282.45 42.4443 282.614 42.909C282.778 43.3737 283.078 43.688 283.516 43.852C283.98 43.9887 284.705 44.057 285.689 44.057H288.682C290.376 44.057 291.661 43.8383 292.536 43.401C293.438 42.9363 294.094 42.212 294.504 41.228C294.914 40.2167 295.214 38.7407 295.406 36.8H296.349C296.267 37.538 296.226 38.522 296.226 39.752ZM307.352 33.274V40.654C307.352 41.6927 307.461 42.4443 307.68 42.909C307.899 43.3737 308.281 43.688 308.828 43.852C309.375 44.016 310.263 44.1253 311.493 44.18V45C310.072 44.918 308.063 44.877 305.466 44.877C303.115 44.877 301.366 44.918 300.218 45V44.18C301.202 44.1253 301.913 44.016 302.35 43.852C302.815 43.688 303.129 43.3737 303.293 42.909C303.457 42.4443 303.539 41.6927 303.539 40.654V20.318C303.539 19.2793 303.457 18.5277 303.293 18.063C303.129 17.5983 302.815 17.284 302.35 17.12C301.913 16.956 301.202 16.8467 300.218 16.792V15.972C301.366 16.054 303.033 16.095 305.22 16.095L309.648 16.054C310.167 16.0267 310.755 16.013 311.411 16.013C314.609 16.013 317.055 16.751 318.75 18.227C320.445 19.6757 321.292 21.63 321.292 24.09C321.292 25.5933 320.95 27.042 320.267 28.436C319.611 29.8027 318.477 30.9507 316.864 31.88C315.279 32.8093 313.16 33.274 310.509 33.274H307.352ZM310.386 16.792C309.539 16.792 308.896 16.8877 308.459 17.079C308.049 17.2703 307.762 17.612 307.598 18.104C307.434 18.596 307.352 19.334 307.352 20.318V32.454H310.099C312.778 32.454 314.623 31.7433 315.634 30.322C316.673 28.8733 317.192 26.9463 317.192 24.541C317.192 21.8897 316.659 19.9353 315.593 18.678C314.554 17.4207 312.819 16.792 310.386 16.792ZM345.193 39.752C345.193 41.31 345.289 43.0593 345.48 45C343.622 44.918 340.492 44.877 336.091 44.877C330.843 44.877 326.88 44.918 324.201 45V44.18C325.185 44.1253 325.896 44.016 326.333 43.852C326.798 43.688 327.112 43.3737 327.276 42.909C327.44 42.4443 327.522 41.6927 327.522 40.654V20.318C327.522 19.2793 327.44 18.5277 327.276 18.063C327.112 17.5983 326.798 17.284 326.333 17.12C325.896 16.956 325.185 16.8467 324.201 16.792V15.972C326.88 16.054 330.843 16.095 336.091 16.095C340.109 16.095 342.966 16.054 344.66 15.972C344.469 17.776 344.373 19.3887 344.373 20.81C344.373 21.876 344.414 22.7233 344.496 23.352H343.553C343.362 21.5753 343.116 20.2633 342.815 19.416C342.515 18.5413 342.009 17.9127 341.298 17.53C340.588 17.12 339.508 16.915 338.059 16.915H334.656C333.672 16.915 332.948 16.997 332.483 17.161C332.046 17.2977 331.745 17.5983 331.581 18.063C331.417 18.5277 331.335 19.2793 331.335 20.318V29.994H334.041C334.998 29.994 335.736 29.7753 336.255 29.338C336.775 28.8733 337.116 28.3403 337.28 27.739C337.472 27.1103 337.622 26.3313 337.731 25.402L337.854 24.582H338.797C338.715 25.73 338.674 27.0147 338.674 28.436V30.404C338.674 31.798 338.756 33.7387 338.92 36.226H337.977C337.95 36.0347 337.868 35.3787 337.731 34.258C337.595 33.11 337.212 32.249 336.583 31.675C335.982 31.101 335.135 30.814 334.041 30.814H331.335V40.654C331.335 41.6927 331.417 42.4443 331.581 42.909C331.745 43.3737 332.046 43.688 332.483 43.852C332.948 43.9887 333.672 44.057 334.656 44.057H337.649C339.344 44.057 340.629 43.8383 341.503 43.401C342.405 42.9363 343.061 42.212 343.471 41.228C343.881 40.2167 344.182 38.7407 344.373 36.8H345.316C345.234 37.538 345.193 38.522 345.193 39.752ZM372.515 16.792C371.531 16.8467 370.807 16.956 370.342 17.12C369.905 17.284 369.604 17.5983 369.44 18.063C369.276 18.5277 369.194 19.2793 369.194 20.318V40.654C369.194 41.6927 369.276 42.4443 369.44 42.909C369.604 43.3737 369.905 43.688 370.342 43.852C370.807 44.016 371.531 44.1253 372.515 44.18V45C371.367 44.918 369.618 44.877 367.267 44.877C365.08 44.877 363.345 44.918 362.06 45V44.18C363.044 44.1253 363.755 44.016 364.192 43.852C364.657 43.688 364.971 43.3737 365.135 42.909C365.299 42.4443 365.381 41.6927 365.381 40.654V31.224H361.281C360.242 31.224 359.436 31.4563 358.862 31.921C358.288 32.3857 357.851 33.0007 357.55 33.766C357.277 34.5313 356.976 35.6247 356.648 37.046L355.746 41.146C355.391 42.786 354.844 43.934 354.106 44.59C353.395 45.246 352.48 45.574 351.359 45.574C350.32 45.574 349.487 45.369 348.858 44.959C348.229 44.549 347.601 43.8793 346.972 42.95L347.587 42.499C347.997 43.0457 348.352 43.442 348.653 43.688C348.981 43.934 349.377 44.057 349.842 44.057C350.361 44.057 350.758 43.8247 351.031 43.36C351.304 42.868 351.578 41.9797 351.851 40.695L352.794 36.513C353.177 34.791 353.805 33.5337 354.68 32.741C355.555 31.9483 356.894 31.4017 358.698 31.101L359.231 31.019C356.47 30.609 354.475 29.666 353.245 28.19C352.042 26.6867 351.441 25.0057 351.441 23.147C351.441 21.0423 352.288 19.334 353.983 18.022C355.705 16.6827 358.151 16.013 361.322 16.013C361.978 16.013 362.566 16.0267 363.085 16.054L367.513 16.095C369.7 16.095 371.367 16.054 372.515 15.972V16.792ZM355.541 23.311C355.541 25.5797 356.047 27.329 357.058 28.559C358.069 29.789 359.928 30.404 362.634 30.404H365.381V20.318C365.381 19.334 365.299 18.596 365.135 18.104C364.971 17.612 364.67 17.2703 364.233 17.079C363.823 16.8877 363.194 16.792 362.347 16.792C359.969 16.792 358.233 17.3523 357.14 18.473C356.074 19.5937 355.541 21.2063 355.541 23.311ZM215.211 70.398C216.851 70.398 218.245 70.6303 219.393 71.095C220.541 71.5597 221.662 72.2157 222.755 73.063C223.056 73.309 223.315 73.432 223.534 73.432C224.081 73.432 224.436 72.612 224.6 70.972H225.543C225.434 72.7487 225.379 75.892 225.379 80.402H224.436C224.135 78.6253 223.862 77.3543 223.616 76.589C223.37 75.7963 222.96 75.0447 222.386 74.334C221.566 73.268 220.514 72.4753 219.229 71.956C217.972 71.4093 216.605 71.136 215.129 71.136C213.352 71.136 211.794 71.7237 210.455 72.899C209.143 74.0743 208.118 75.7553 207.38 77.942C206.642 80.1013 206.273 82.6433 206.273 85.568C206.273 88.5473 206.669 91.103 207.462 93.235C208.255 95.367 209.348 96.9933 210.742 98.114C212.163 99.2073 213.762 99.754 215.539 99.754C216.906 99.754 218.231 99.4943 219.516 98.975C220.801 98.4557 221.812 97.6767 222.55 96.638C223.097 95.8727 223.493 95.0527 223.739 94.178C223.985 93.3033 224.217 91.964 224.436 90.16H225.379C225.379 94.8613 225.434 98.1413 225.543 100H224.6C224.518 99.1253 224.395 98.5103 224.231 98.155C224.094 97.7723 223.889 97.581 223.616 97.581C223.397 97.581 223.11 97.6903 222.755 97.909C221.525 98.7837 220.35 99.4533 219.229 99.918C218.108 100.355 216.755 100.574 215.17 100.574C212.573 100.574 210.291 99.9863 208.323 98.811C206.382 97.6357 204.865 95.941 203.772 93.727C202.706 91.4857 202.173 88.8207 202.173 85.732C202.173 82.7253 202.72 80.0603 203.813 77.737C204.934 75.4137 206.478 73.6097 208.446 72.325C210.441 71.0403 212.696 70.398 215.211 70.398ZM243.439 70.398C246.035 70.398 248.304 70.9857 250.245 72.161C252.213 73.3363 253.73 75.0447 254.796 77.286C255.889 79.5 256.436 82.1513 256.436 85.24C256.436 88.2467 255.875 90.9117 254.755 93.235C253.661 95.5583 252.117 97.3623 250.122 98.647C248.154 99.9317 245.912 100.574 243.398 100.574C240.801 100.574 238.519 99.9863 236.551 98.811C234.61 97.6357 233.093 95.941 232 93.727C230.934 91.4857 230.401 88.8207 230.401 85.732C230.401 82.7253 230.947 80.0603 232.041 77.737C233.161 75.4137 234.706 73.6097 236.674 72.325C238.669 71.0403 240.924 70.398 243.439 70.398ZM243.275 71.136C241.525 71.136 239.981 71.751 238.642 72.981C237.33 74.1837 236.305 75.8783 235.567 78.065C234.856 80.2517 234.501 82.7527 234.501 85.568C234.501 88.4107 234.897 90.9117 235.69 93.071C236.51 95.2303 237.603 96.8977 238.97 98.073C240.336 99.2483 241.867 99.836 243.562 99.836C245.311 99.836 246.842 99.2347 248.154 98.032C249.493 96.802 250.518 95.0937 251.229 92.907C251.967 90.7203 252.336 88.2193 252.336 85.404C252.336 82.5613 251.926 80.0603 251.106 77.901C250.313 75.7417 249.233 74.0743 247.867 72.899C246.5 71.7237 244.969 71.136 243.275 71.136ZM273.631 84.666C276.638 85.076 278.783 85.9507 280.068 87.29C281.353 88.602 281.995 90.1873 281.995 92.046C281.995 93.604 281.599 94.9843 280.806 96.187C280.013 97.3897 278.879 98.3327 277.403 99.016C275.927 99.672 274.178 100 272.155 100C271.417 100 270.788 99.9863 270.269 99.959C268.52 99.9043 266.798 99.877 265.103 99.877C262.862 99.877 261.167 99.918 260.019 100V99.18C261.003 99.1253 261.714 99.016 262.151 98.852C262.616 98.688 262.93 98.3737 263.094 97.909C263.258 97.4443 263.34 96.6927 263.34 95.654V75.318C263.34 74.2793 263.258 73.5277 263.094 73.063C262.93 72.5983 262.616 72.284 262.151 72.12C261.714 71.956 261.003 71.8467 260.019 71.792V70.972C261.167 71.054 262.834 71.095 265.021 71.095L269.449 71.054C269.968 71.0267 270.556 71.013 271.212 71.013C274 71.013 276.132 71.6007 277.608 72.776C279.111 73.9513 279.863 75.5093 279.863 77.45C279.863 79.0353 279.357 80.4567 278.346 81.714C277.362 82.9713 275.79 83.928 273.631 84.584V84.666ZM270.187 71.792C269.34 71.792 268.697 71.8877 268.26 72.079C267.85 72.2703 267.563 72.612 267.399 73.104C267.235 73.596 267.153 74.334 267.153 75.318V84.584H269.9C272.141 84.584 273.699 83.9827 274.574 82.78C275.476 81.55 275.927 79.9237 275.927 77.901C275.927 75.851 275.476 74.3203 274.574 73.309C273.672 72.2977 272.21 71.792 270.187 71.792ZM270.228 99.057C275.339 99.057 277.895 96.6653 277.895 91.882C277.895 89.7227 277.307 88.0827 276.132 86.962C274.984 85.8413 273.139 85.281 270.597 85.281H267.153V95.654C267.153 96.638 267.235 97.3623 267.399 97.827C267.563 98.2917 267.85 98.6197 268.26 98.811C268.697 98.975 269.353 99.057 270.228 99.057ZM292.418 88.274V95.654C292.418 96.6927 292.527 97.4443 292.746 97.909C292.964 98.3737 293.347 98.688 293.894 98.852C294.44 99.016 295.329 99.1253 296.559 99.18V100C295.137 99.918 293.128 99.877 290.532 99.877C288.181 99.877 286.432 99.918 285.284 100V99.18C286.268 99.1253 286.978 99.016 287.416 98.852C287.88 98.688 288.195 98.3737 288.359 97.909C288.523 97.4443 288.605 96.6927 288.605 95.654V75.318C288.605 74.2793 288.523 73.5277 288.359 73.063C288.195 72.5983 287.88 72.284 287.416 72.12C286.978 71.956 286.268 71.8467 285.284 71.792V70.972C286.432 71.054 288.099 71.095 290.286 71.095L294.714 71.054C295.233 71.0267 295.821 71.013 296.477 71.013C299.675 71.013 302.121 71.751 303.816 73.227C305.51 74.6757 306.358 76.63 306.358 79.09C306.358 80.5933 306.016 82.042 305.333 83.436C304.677 84.8027 303.542 85.9507 301.93 86.88C300.344 87.8093 298.226 88.274 295.575 88.274H292.418ZM295.452 71.792C294.604 71.792 293.962 71.8877 293.525 72.079C293.115 72.2703 292.828 72.612 292.664 73.104C292.5 73.596 292.418 74.334 292.418 75.318V87.454H295.165C297.843 87.454 299.688 86.7433 300.7 85.322C301.738 83.8733 302.258 81.9463 302.258 79.541C302.258 76.8897 301.725 74.9353 300.659 73.678C299.62 72.4207 297.884 71.792 295.452 71.792ZM330.259 94.752C330.259 96.31 330.355 98.0593 330.546 100C328.687 99.918 325.558 99.877 321.157 99.877C315.909 99.877 311.946 99.918 309.267 100V99.18C310.251 99.1253 310.962 99.016 311.399 98.852C311.864 98.688 312.178 98.3737 312.342 97.909C312.506 97.4443 312.588 96.6927 312.588 95.654V75.318C312.588 74.2793 312.506 73.5277 312.342 73.063C312.178 72.5983 311.864 72.284 311.399 72.12C310.962 71.956 310.251 71.8467 309.267 71.792V70.972C311.946 71.054 315.909 71.095 321.157 71.095C325.175 71.095 328.031 71.054 329.726 70.972C329.535 72.776 329.439 74.3887 329.439 75.81C329.439 76.876 329.48 77.7233 329.562 78.352H328.619C328.428 76.5753 328.182 75.2633 327.881 74.416C327.58 73.5413 327.075 72.9127 326.364 72.53C325.653 72.12 324.574 71.915 323.125 71.915H319.722C318.738 71.915 318.014 71.997 317.549 72.161C317.112 72.2977 316.811 72.5983 316.647 73.063C316.483 73.5277 316.401 74.2793 316.401 75.318V84.994H319.107C320.064 84.994 320.802 84.7753 321.321 84.338C321.84 83.8733 322.182 83.3403 322.346 82.739C322.537 82.1103 322.688 81.3313 322.797 80.402L322.92 79.582H323.863C323.781 80.73 323.74 82.0147 323.74 83.436V85.404C323.74 86.798 323.822 88.7387 323.986 91.226H323.043C323.016 91.0347 322.934 90.3787 322.797 89.258C322.66 88.11 322.278 87.249 321.649 86.675C321.048 86.101 320.2 85.814 319.107 85.814H316.401V95.654C316.401 96.6927 316.483 97.4443 316.647 97.909C316.811 98.3737 317.112 98.688 317.549 98.852C318.014 98.9887 318.738 99.057 319.722 99.057H322.715C324.41 99.057 325.694 98.8383 326.569 98.401C327.471 97.9363 328.127 97.212 328.537 96.228C328.947 95.2167 329.248 93.7407 329.439 91.8H330.382C330.3 92.538 330.259 93.522 330.259 94.752ZM366.518 71.792C365.534 71.8467 364.81 71.956 364.345 72.12C363.908 72.284 363.607 72.5983 363.443 73.063C363.279 73.5277 363.197 74.2793 363.197 75.318V95.654C363.197 96.6927 363.279 97.4443 363.443 97.909C363.607 98.3737 363.908 98.688 364.345 98.852C364.81 99.016 365.534 99.1253 366.518 99.18V100C365.261 99.918 363.525 99.877 361.311 99.877C358.961 99.877 357.211 99.918 356.063 100V99.18C357.047 99.1253 357.758 99.016 358.195 98.852C358.66 98.688 358.974 98.3737 359.138 97.909C359.302 97.4443 359.384 96.6927 359.384 95.654V73.678L349.503 100.205H348.847L338.515 73.596V95.244C338.515 96.31 338.597 97.1027 338.761 97.622C338.953 98.1413 339.308 98.524 339.827 98.77C340.347 98.9887 341.153 99.1253 342.246 99.18V100C341.262 99.918 339.868 99.877 338.064 99.877C336.424 99.877 335.153 99.918 334.251 100V99.18C335.208 99.1253 335.919 98.9887 336.383 98.77C336.848 98.524 337.162 98.1413 337.326 97.622C337.49 97.0753 337.572 96.2827 337.572 95.244V75.318C337.572 74.2793 337.49 73.5277 337.326 73.063C337.162 72.5983 336.848 72.284 336.383 72.12C335.946 71.956 335.235 71.8467 334.251 71.792V70.972C335.153 71.054 336.424 71.095 338.064 71.095C339.486 71.095 340.647 71.054 341.549 70.972L350.569 94.711L359.384 71.095H361.311C363.525 71.095 365.261 71.054 366.518 70.972V71.792ZM390.958 94.752C390.958 96.31 391.054 98.0593 391.245 100C389.386 99.918 386.257 99.877 381.856 99.877C376.608 99.877 372.645 99.918 369.966 100V99.18C370.95 99.1253 371.661 99.016 372.098 98.852C372.563 98.688 372.877 98.3737 373.041 97.909C373.205 97.4443 373.287 96.6927 373.287 95.654V75.318C373.287 74.2793 373.205 73.5277 373.041 73.063C372.877 72.5983 372.563 72.284 372.098 72.12C371.661 71.956 370.95 71.8467 369.966 71.792V70.972C372.645 71.054 376.608 71.095 381.856 71.095C385.874 71.095 388.73 71.054 390.425 70.972C390.234 72.776 390.138 74.3887 390.138 75.81C390.138 76.876 390.179 77.7233 390.261 78.352H389.318C389.127 76.5753 388.881 75.2633 388.58 74.416C388.279 73.5413 387.774 72.9127 387.063 72.53C386.352 72.12 385.273 71.915 383.824 71.915H380.421C379.437 71.915 378.713 71.997 378.248 72.161C377.811 72.2977 377.51 72.5983 377.346 73.063C377.182 73.5277 377.1 74.2793 377.1 75.318V84.994H379.806C380.763 84.994 381.501 84.7753 382.02 84.338C382.539 83.8733 382.881 83.3403 383.045 82.739C383.236 82.1103 383.387 81.3313 383.496 80.402L383.619 79.582H384.562C384.48 80.73 384.439 82.0147 384.439 83.436V85.404C384.439 86.798 384.521 88.7387 384.685 91.226H383.742C383.715 91.0347 383.633 90.3787 383.496 89.258C383.359 88.11 382.977 87.249 382.348 86.675C381.747 86.101 380.899 85.814 379.806 85.814H377.1V95.654C377.1 96.6927 377.182 97.4443 377.346 97.909C377.51 98.3737 377.811 98.688 378.248 98.852C378.713 98.9887 379.437 99.057 380.421 99.057H383.414C385.109 99.057 386.393 98.8383 387.268 98.401C388.17 97.9363 388.826 97.212 389.236 96.228C389.646 95.2167 389.947 93.7407 390.138 91.8H391.081C390.999 92.538 390.958 93.522 390.958 94.752ZM422.544 71.792C421.56 71.8467 420.835 71.956 420.371 72.12C419.933 72.284 419.633 72.5983 419.469 73.063C419.305 73.5277 419.223 74.2793 419.223 75.318V95.654C419.223 96.6927 419.305 97.4443 419.469 97.909C419.633 98.3737 419.933 98.688 420.371 98.852C420.835 99.016 421.56 99.1253 422.544 99.18V100C421.396 99.918 419.646 99.877 417.296 99.877C415.082 99.877 413.346 99.918 412.089 100V99.18C413.073 99.1253 413.783 99.016 414.221 98.852C414.685 98.688 415 98.3737 415.164 97.909C415.328 97.4443 415.41 96.6927 415.41 95.654V85.814H402.085V95.654C402.085 96.6927 402.167 97.4443 402.331 97.909C402.495 98.3737 402.795 98.688 403.233 98.852C403.697 99.016 404.422 99.1253 405.406 99.18V100C404.148 99.918 402.413 99.877 400.199 99.877C397.848 99.877 396.099 99.918 394.951 100V99.18C395.935 99.1253 396.645 99.016 397.083 98.852C397.547 98.688 397.862 98.3737 398.026 97.909C398.19 97.4443 398.272 96.6927 398.272 95.654V75.318C398.272 74.2793 398.19 73.5277 398.026 73.063C397.862 72.5983 397.547 72.284 397.083 72.12C396.645 71.956 395.935 71.8467 394.951 71.792V70.972C396.099 71.054 397.848 71.095 400.199 71.095C402.385 71.095 404.121 71.054 405.406 70.972V71.792C404.422 71.8467 403.697 71.956 403.233 72.12C402.795 72.284 402.495 72.5983 402.331 73.063C402.167 73.5277 402.085 74.2793 402.085 75.318V84.994H415.41V75.318C415.41 74.2793 415.328 73.5277 415.164 73.063C415 72.5983 414.685 72.284 414.221 72.12C413.783 71.956 413.073 71.8467 412.089 71.792V70.972C413.346 71.054 415.082 71.095 417.296 71.095C419.646 71.095 421.396 71.054 422.544 70.972V71.792ZM453.574 71.792C452.59 71.8467 451.865 71.956 451.401 72.12C450.963 72.284 450.663 72.5983 450.499 73.063C450.335 73.5277 450.253 74.2793 450.253 75.318V95.654C450.253 96.6927 450.335 97.4443 450.499 97.909C450.663 98.3737 450.963 98.688 451.401 98.852C451.865 99.016 452.59 99.1253 453.574 99.18V100C452.426 99.918 450.676 99.877 448.326 99.877C446.112 99.877 444.376 99.918 443.119 100V99.18C444.103 99.1253 444.813 99.016 445.251 98.852C445.715 98.688 446.03 98.3737 446.194 97.909C446.358 97.4443 446.44 96.6927 446.44 95.654V85.814H433.115V95.654C433.115 96.6927 433.197 97.4443 433.361 97.909C433.525 98.3737 433.825 98.688 434.263 98.852C434.727 99.016 435.452 99.1253 436.436 99.18V100C435.178 99.918 433.443 99.877 431.229 99.877C428.878 99.877 427.129 99.918 425.981 100V99.18C426.965 99.1253 427.675 99.016 428.113 98.852C428.577 98.688 428.892 98.3737 429.056 97.909C429.22 97.4443 429.302 96.6927 429.302 95.654V75.318C429.302 74.2793 429.22 73.5277 429.056 73.063C428.892 72.5983 428.577 72.284 428.113 72.12C427.675 71.956 426.965 71.8467 425.981 71.792V70.972C427.129 71.054 428.878 71.095 431.229 71.095C433.415 71.095 435.151 71.054 436.436 70.972V71.792C435.452 71.8467 434.727 71.956 434.263 72.12C433.825 72.284 433.525 72.5983 433.361 73.063C433.197 73.5277 433.115 74.2793 433.115 75.318V84.994H446.44V75.318C446.44 74.2793 446.358 73.5277 446.194 73.063C446.03 72.5983 445.715 72.284 445.251 72.12C444.813 71.956 444.103 71.8467 443.119 71.792V70.972C444.376 71.054 446.112 71.095 448.326 71.095C450.676 71.095 452.426 71.054 453.574 70.972V71.792ZM470.18 70.398C472.776 70.398 475.045 70.9857 476.986 72.161C478.954 73.3363 480.471 75.0447 481.537 77.286C482.63 79.5 483.177 82.1513 483.177 85.24C483.177 88.2467 482.616 90.9117 481.496 93.235C480.402 95.5583 478.858 97.3623 476.863 98.647C474.895 99.9317 472.653 100.574 470.139 100.574C467.542 100.574 465.26 99.9863 463.292 98.811C461.351 97.6357 459.834 95.941 458.741 93.727C457.675 91.4857 457.142 88.8207 457.142 85.732C457.142 82.7253 457.688 80.0603 458.782 77.737C459.902 75.4137 461.447 73.6097 463.415 72.325C465.41 71.0403 467.665 70.398 470.18 70.398ZM470.016 71.136C468.266 71.136 466.722 71.751 465.383 72.981C464.071 74.1837 463.046 75.8783 462.308 78.065C461.597 80.2517 461.242 82.7527 461.242 85.568C461.242 88.4107 461.638 90.9117 462.431 93.071C463.251 95.2303 464.344 96.8977 465.711 98.073C467.077 99.2483 468.608 99.836 470.303 99.836C472.052 99.836 473.583 99.2347 474.895 98.032C476.234 96.802 477.259 95.0937 477.97 92.907C478.708 90.7203 479.077 88.2193 479.077 85.404C479.077 82.5613 478.667 80.0603 477.847 77.901C477.054 75.7417 475.974 74.0743 474.608 72.899C473.241 71.7237 471.71 71.136 470.016 71.136ZM505.579 70.972C505.388 72.9127 505.292 74.662 505.292 76.22C505.292 77.5867 505.333 78.7073 505.415 79.582H504.472C504.253 77.4773 503.98 75.9193 503.652 74.908C503.324 73.8693 502.75 73.1177 501.93 72.653C501.11 72.161 499.853 71.915 498.158 71.915H497.215C496.231 71.915 495.507 71.997 495.042 72.161C494.605 72.2977 494.304 72.5983 494.14 73.063C493.976 73.5277 493.894 74.2793 493.894 75.318V95.654C493.894 96.6927 494.003 97.4443 494.222 97.909C494.441 98.3737 494.823 98.688 495.37 98.852C495.917 99.016 496.805 99.1253 498.035 99.18V100C496.614 99.918 494.605 99.877 492.008 99.877C489.657 99.877 487.908 99.918 486.76 100V99.18C487.744 99.1253 488.455 99.016 488.892 98.852C489.357 98.688 489.671 98.3737 489.835 97.909C489.999 97.4443 490.081 96.6927 490.081 95.654V75.318C490.081 74.2793 489.999 73.5277 489.835 73.063C489.671 72.5983 489.357 72.284 488.892 72.12C488.455 71.956 487.744 71.8467 486.76 71.792V70.972C489.439 71.054 493.402 71.095 498.65 71.095C501.903 71.095 504.212 71.054 505.579 70.972ZM521.91 70.398C524.507 70.398 526.776 70.9857 528.716 72.161C530.684 73.3363 532.201 75.0447 533.267 77.286C534.361 79.5 534.907 82.1513 534.907 85.24C534.907 88.2467 534.347 90.9117 533.226 93.235C532.133 95.5583 530.589 97.3623 528.593 98.647C526.625 99.9317 524.384 100.574 521.869 100.574C519.273 100.574 516.99 99.9863 515.022 98.811C513.082 97.6357 511.565 95.941 510.471 93.727C509.405 91.4857 508.872 88.8207 508.872 85.732C508.872 82.7253 509.419 80.0603 510.512 77.737C511.633 75.4137 513.177 73.6097 515.145 72.325C517.141 71.0403 519.396 70.398 521.91 70.398ZM521.746 71.136C519.997 71.136 518.453 71.751 517.113 72.981C515.801 74.1837 514.776 75.8783 514.038 78.065C513.328 80.2517 512.972 82.7527 512.972 85.568C512.972 88.4107 513.369 90.9117 514.161 93.071C514.981 95.2303 516.075 96.8977 517.441 98.073C518.808 99.2483 520.339 99.836 522.033 99.836C523.783 99.836 525.313 99.2347 526.625 98.032C527.965 96.802 528.99 95.0937 529.7 92.907C530.438 90.7203 530.807 88.2193 530.807 85.404C530.807 82.5613 530.397 80.0603 529.577 77.901C528.785 75.7417 527.705 74.0743 526.338 72.899C524.972 71.7237 523.441 71.136 521.746 71.136ZM230.135 126.792C229.151 126.847 228.427 126.956 227.962 127.12C227.525 127.284 227.224 127.598 227.06 128.063C226.896 128.528 226.814 129.279 226.814 130.318V150.654C226.814 151.693 226.896 152.444 227.06 152.909C227.224 153.374 227.525 153.688 227.962 153.852C228.427 154.016 229.151 154.125 230.135 154.18V155C228.987 154.918 227.238 154.877 224.887 154.877C222.7 154.877 220.965 154.918 219.68 155V154.18C220.664 154.125 221.375 154.016 221.812 153.852C222.277 153.688 222.591 153.374 222.755 152.909C222.919 152.444 223.001 151.693 223.001 150.654V131.261L208.856 151.31C208.883 152.103 208.993 152.704 209.184 153.114C209.375 153.497 209.69 153.756 210.127 153.893C210.564 154.03 211.248 154.125 212.177 154.18V155C210.92 154.918 209.184 154.877 206.97 154.877C204.619 154.877 202.87 154.918 201.722 155V154.18C202.706 154.125 203.417 154.016 203.854 153.852C204.319 153.688 204.633 153.374 204.797 152.909C204.961 152.444 205.043 151.693 205.043 150.654V130.318C205.043 129.279 204.961 128.528 204.797 128.063C204.633 127.598 204.319 127.284 203.854 127.12C203.417 126.956 202.706 126.847 201.722 126.792V125.972C202.87 126.054 204.619 126.095 206.97 126.095C209.157 126.095 210.892 126.054 212.177 125.972V126.792C211.193 126.847 210.469 126.956 210.004 127.12C209.567 127.284 209.266 127.598 209.102 128.063C208.938 128.528 208.856 129.279 208.856 130.318V149.711L223.001 129.662C222.974 128.869 222.864 128.282 222.673 127.899C222.482 127.489 222.167 127.216 221.73 127.079C221.293 126.942 220.609 126.847 219.68 126.792V125.972C220.965 126.054 222.7 126.095 224.887 126.095C227.238 126.095 228.987 126.054 230.135 125.972V126.792ZM246.762 125.398C248.402 125.398 249.796 125.63 250.944 126.095C252.092 126.56 253.212 127.216 254.306 128.063C254.606 128.309 254.866 128.432 255.085 128.432C255.631 128.432 255.987 127.612 256.151 125.972H257.094C256.984 127.749 256.93 130.892 256.93 135.402H255.987C255.686 133.625 255.413 132.354 255.167 131.589C254.921 130.796 254.511 130.045 253.937 129.334C253.117 128.268 252.064 127.475 250.78 126.956C249.522 126.409 248.156 126.136 246.68 126.136C244.903 126.136 243.345 126.724 242.006 127.899C240.694 129.074 239.669 130.755 238.931 132.942C238.193 135.101 237.824 137.643 237.824 140.568C237.824 143.547 238.22 146.103 239.013 148.235C239.805 150.367 240.899 151.993 242.293 153.114C243.714 154.207 245.313 154.754 247.09 154.754C248.456 154.754 249.782 154.494 251.067 153.975C252.351 153.456 253.363 152.677 254.101 151.638C254.647 150.873 255.044 150.053 255.29 149.178C255.536 148.303 255.768 146.964 255.987 145.16H256.93C256.93 149.861 256.984 153.141 257.094 155H256.151C256.069 154.125 255.946 153.51 255.782 153.155C255.645 152.772 255.44 152.581 255.167 152.581C254.948 152.581 254.661 152.69 254.306 152.909C253.076 153.784 251.9 154.453 250.78 154.918C249.659 155.355 248.306 155.574 246.721 155.574C244.124 155.574 241.842 154.986 239.874 153.811C237.933 152.636 236.416 150.941 235.323 148.727C234.257 146.486 233.724 143.821 233.724 140.732C233.724 137.725 234.27 135.06 235.364 132.737C236.484 130.414 238.029 128.61 239.997 127.325C241.992 126.04 244.247 125.398 246.762 125.398ZM286.838 152.95C286.237 153.852 285.622 154.522 284.993 154.959C284.365 155.369 283.517 155.574 282.451 155.574C281.358 155.574 280.442 155.26 279.704 154.631C278.994 154.002 278.447 152.841 278.064 151.146L276.916 146.062C276.588 144.668 276.26 143.602 275.932 142.864C275.632 142.099 275.112 141.497 274.374 141.06C273.664 140.595 272.652 140.363 271.34 140.363H268.634V150.654C268.634 151.693 268.716 152.444 268.88 152.909C269.044 153.374 269.345 153.688 269.782 153.852C270.247 154.016 270.971 154.125 271.955 154.18V155C270.698 154.918 268.962 154.877 266.748 154.877C264.398 154.877 262.648 154.918 261.5 155V154.18C262.484 154.125 263.195 154.016 263.632 153.852C264.097 153.688 264.411 153.374 264.575 152.909C264.739 152.444 264.821 151.693 264.821 150.654V130.318C264.821 129.279 264.739 128.528 264.575 128.063C264.411 127.598 264.097 127.284 263.632 127.12C263.195 126.956 262.484 126.847 261.5 126.792V125.972C262.648 126.054 264.398 126.095 266.748 126.095C268.935 126.095 270.671 126.054 271.955 125.972V126.792C270.971 126.847 270.247 126.956 269.782 127.12C269.345 127.284 269.044 127.598 268.88 128.063C268.716 128.528 268.634 129.279 268.634 130.318V139.584C270.657 139.557 272.27 138.764 273.472 137.206L277.408 132.204C278.802 130.482 279.499 129.17 279.499 128.268C279.499 127.311 278.652 126.819 276.957 126.792V125.972C278.515 126.054 280.087 126.095 281.672 126.095C283.176 126.095 284.337 126.054 285.157 125.972V126.792C283.299 127.065 281.686 128.063 280.319 129.785L272.611 139.625C274.798 139.707 276.575 140.185 277.941 141.06C279.335 141.907 280.278 143.397 280.77 145.529L281.959 150.695C282.26 152.007 282.533 152.895 282.779 153.36C283.053 153.825 283.449 154.057 283.968 154.057C284.433 154.057 284.816 153.934 285.116 153.688C285.444 153.442 285.813 153.046 286.223 152.499L286.838 152.95ZM311.386 126.095C312.616 126.095 313.641 126.054 314.461 125.972V126.792C313.915 126.929 313.382 127.284 312.862 127.858C312.343 128.405 311.783 129.266 311.181 130.441L302.243 148.235L300.562 151.638C299.961 152.868 299.36 153.784 298.758 154.385C298.348 154.795 297.87 155.096 297.323 155.287C296.777 155.478 296.23 155.574 295.683 155.574C294.836 155.574 294.139 155.355 293.592 154.918C293.073 154.481 292.813 153.879 292.813 153.114C292.813 152.458 293.018 151.939 293.428 151.556C293.838 151.146 294.358 150.941 294.986 150.941C295.588 150.941 296.08 151.119 296.462 151.474C296.872 151.802 297.077 152.267 297.077 152.868C297.077 153.278 296.968 153.647 296.749 153.975C296.558 154.276 296.298 154.522 295.97 154.713C296.025 154.74 296.107 154.754 296.216 154.754C296.927 154.754 297.556 154.494 298.102 153.975C298.676 153.456 299.223 152.663 299.742 151.597L300.849 149.301L289.861 129.129C289.369 128.227 288.932 127.626 288.549 127.325C288.194 126.997 287.839 126.833 287.483 126.833V125.972C288.549 126.054 289.752 126.095 291.091 126.095C293.743 126.095 295.656 126.054 296.831 125.972V126.833C294.918 126.833 293.961 127.352 293.961 128.391C293.961 128.801 294.098 129.279 294.371 129.826L302.735 145.406L309.172 132.491C309.91 131.042 310.279 129.867 310.279 128.965C310.279 128.2 309.979 127.653 309.377 127.325C308.776 126.997 307.874 126.819 306.671 126.792V125.972C308.229 126.054 309.801 126.095 311.386 126.095ZM328.441 125.398C330.081 125.398 331.475 125.63 332.623 126.095C333.771 126.56 334.892 127.216 335.985 128.063C336.286 128.309 336.546 128.432 336.764 128.432C337.311 128.432 337.666 127.612 337.83 125.972H338.773C338.664 127.749 338.609 130.892 338.609 135.402H337.666C337.366 133.625 337.092 132.354 336.846 131.589C336.6 130.796 336.19 130.045 335.616 129.334C334.796 128.268 333.744 127.475 332.459 126.956C331.202 126.409 329.835 126.136 328.359 126.136C326.583 126.136 325.025 126.724 323.685 127.899C322.373 129.074 321.348 130.755 320.61 132.942C319.872 135.101 319.503 137.643 319.503 140.568C319.503 143.547 319.9 146.103 320.692 148.235C321.485 150.367 322.578 151.993 323.972 153.114C325.394 154.207 326.993 154.754 328.769 154.754C330.136 154.754 331.462 154.494 332.746 153.975C334.031 153.456 335.042 152.677 335.78 151.638C336.327 150.873 336.723 150.053 336.969 149.178C337.215 148.303 337.448 146.964 337.666 145.16H338.609C338.609 149.861 338.664 153.141 338.773 155H337.83C337.748 154.125 337.625 153.51 337.461 153.155C337.325 152.772 337.12 152.581 336.846 152.581C336.628 152.581 336.341 152.69 335.985 152.909C334.755 153.784 333.58 154.453 332.459 154.918C331.339 155.355 329.986 155.574 328.4 155.574C325.804 155.574 323.521 154.986 321.553 153.811C319.613 152.636 318.096 150.941 317.002 148.727C315.936 146.486 315.403 143.821 315.403 140.732C315.403 137.725 315.95 135.06 317.043 132.737C318.164 130.414 319.708 128.61 321.676 127.325C323.672 126.04 325.927 125.398 328.441 125.398ZM356.669 125.398C358.309 125.398 359.703 125.63 360.851 126.095C361.999 126.56 363.12 127.216 364.213 128.063C364.514 128.309 364.773 128.432 364.992 128.432C365.539 128.432 365.894 127.612 366.058 125.972H367.001C366.892 127.749 366.837 130.892 366.837 135.402H365.894C365.593 133.625 365.32 132.354 365.074 131.589C364.828 130.796 364.418 130.045 363.844 129.334C363.024 128.268 361.972 127.475 360.687 126.956C359.43 126.409 358.063 126.136 356.587 126.136C354.81 126.136 353.252 126.724 351.913 127.899C350.601 129.074 349.576 130.755 348.838 132.942C348.1 135.101 347.731 137.643 347.731 140.568C347.731 143.547 348.127 146.103 348.92 148.235C349.713 150.367 350.806 151.993 352.2 153.114C353.621 154.207 355.22 154.754 356.997 154.754C358.364 154.754 359.689 154.494 360.974 153.975C362.259 153.456 363.27 152.677 364.008 151.638C364.555 150.873 364.951 150.053 365.197 149.178C365.443 148.303 365.675 146.964 365.894 145.16H366.837C366.837 149.861 366.892 153.141 367.001 155H366.058C365.976 154.125 365.853 153.51 365.689 153.155C365.552 152.772 365.347 152.581 365.074 152.581C364.855 152.581 364.568 152.69 364.213 152.909C362.983 153.784 361.808 154.453 360.687 154.918C359.566 155.355 358.213 155.574 356.628 155.574C354.031 155.574 351.749 154.986 349.781 153.811C347.84 152.636 346.323 150.941 345.23 148.727C344.164 146.486 343.631 143.821 343.631 140.732C343.631 137.725 344.178 135.06 345.271 132.737C346.392 130.414 347.936 128.61 349.904 127.325C351.899 126.04 354.154 125.398 356.669 125.398ZM393.958 125.972C393.766 127.913 393.671 129.662 393.671 131.22C393.671 132.587 393.712 133.707 393.794 134.582H392.851C392.632 132.477 392.359 130.919 392.031 129.908C391.703 128.869 391.129 128.118 390.309 127.653C389.489 127.161 388.231 126.915 386.537 126.915H384.323V150.244C384.323 151.392 384.432 152.226 384.651 152.745C384.869 153.264 385.252 153.62 385.799 153.811C386.345 154.002 387.234 154.125 388.464 154.18V155C387.042 154.918 385.033 154.877 382.437 154.877C379.703 154.877 377.681 154.918 376.369 155V154.18C377.599 154.125 378.487 154.002 379.034 153.811C379.58 153.62 379.963 153.264 380.182 152.745C380.4 152.226 380.51 151.392 380.51 150.244V126.915H378.296C376.601 126.915 375.344 127.161 374.524 127.653C373.704 128.118 373.13 128.869 372.802 129.908C372.474 130.919 372.2 132.477 371.982 134.582H371.039C371.121 133.707 371.162 132.587 371.162 131.22C371.162 129.662 371.066 127.913 370.875 125.972C373.143 126.054 376.997 126.095 382.437 126.095C387.849 126.095 391.689 126.054 393.958 125.972ZM410.484 139.666C413.491 140.076 415.637 140.951 416.921 142.29C418.206 143.602 418.848 145.187 418.848 147.046C418.848 148.604 418.452 149.984 417.659 151.187C416.867 152.39 415.732 153.333 414.256 154.016C412.78 154.672 411.031 155 409.008 155C408.27 155 407.642 154.986 407.122 154.959C405.373 154.904 403.651 154.877 401.956 154.877C399.715 154.877 398.02 154.918 396.872 155V154.18C397.856 154.125 398.567 154.016 399.004 153.852C399.469 153.688 399.783 153.374 399.947 152.909C400.111 152.444 400.193 151.693 400.193 150.654V130.318C400.193 129.279 400.111 128.528 399.947 128.063C399.783 127.598 399.469 127.284 399.004 127.12C398.567 126.956 397.856 126.847 396.872 126.792V125.972C398.02 126.054 399.688 126.095 401.874 126.095L406.302 126.054C406.822 126.027 407.409 126.013 408.065 126.013C410.853 126.013 412.985 126.601 414.461 127.776C415.965 128.951 416.716 130.509 416.716 132.45C416.716 134.035 416.211 135.457 415.199 136.714C414.215 137.971 412.644 138.928 410.484 139.584V139.666ZM407.04 126.792C406.193 126.792 405.551 126.888 405.113 127.079C404.703 127.27 404.416 127.612 404.252 128.104C404.088 128.596 404.006 129.334 404.006 130.318V139.584H406.753C408.995 139.584 410.553 138.983 411.427 137.78C412.329 136.55 412.78 134.924 412.78 132.901C412.78 130.851 412.329 129.32 411.427 128.309C410.525 127.298 409.063 126.792 407.04 126.792ZM407.081 154.057C412.193 154.057 414.748 151.665 414.748 146.882C414.748 144.723 414.161 143.083 412.985 141.962C411.837 140.841 409.992 140.281 407.45 140.281H404.006V150.654C404.006 151.638 404.088 152.362 404.252 152.827C404.416 153.292 404.703 153.62 405.113 153.811C405.551 153.975 406.207 154.057 407.081 154.057ZM443.662 151.556C444.318 153.251 445.261 154.125 446.491 154.18V155C445.398 154.918 443.935 154.877 442.104 154.877C439.753 154.877 438.004 154.918 436.856 155V154.18C437.895 154.125 438.633 154.002 439.07 153.811C439.535 153.592 439.767 153.21 439.767 152.663C439.767 152.198 439.603 151.556 439.275 150.736L436.774 144.012H426.852L425.171 148.358C424.624 149.834 424.351 150.955 424.351 151.72C424.351 152.567 424.638 153.182 425.212 153.565C425.813 153.948 426.715 154.153 427.918 154.18V155C426.36 154.918 424.788 154.877 423.203 154.877C421.973 154.877 420.948 154.918 420.128 155V154.18C421.495 153.852 422.574 152.663 423.367 150.613L433.002 125.767H433.658L443.662 151.556ZM436.446 143.192L431.854 130.933L427.18 143.192H436.446Z" fill="#545973"/>
<defs>
<clipPath id="clip0_203_2">
<rect width="141" height="153" fill="white" transform="translate(0 7)"/>
</clipPath>
</defs>
</svg>
