<svg width="35" height="35" viewBox="0 0 35 35" fill="none" xmlns="http://www.w3.org/2000/svg">
<path d="M17.4375 0.0625C7.80469 0.0625 0 7.86719 0 17.5C0 27.1328 7.80469 34.9375 17.4375 34.9375C27.0703 34.9375 34.875 27.1328 34.875 17.5C34.875 7.86719 27.0703 0.0625 17.4375 0.0625ZM25.9453 12.0156L23.1328 25.5156C22.9219 26.5 22.3594 26.7109 21.5156 26.2891L17.1562 23.0547L15.0469 25.0938C14.8359 25.3047 14.625 25.5156 14.2031 25.5156L14.4844 21.0859L22.5703 13.7734C22.9219 13.4922 22.5 13.2812 22.0078 13.5625L12.0234 19.8906L7.73438 18.5547C6.82031 18.2734 6.82031 17.5703 7.94531 17.1484L24.75 10.6797C25.5234 10.3984 26.2266 10.8906 25.9453 12.0156Z" fill="#545973"/>
</svg>
