<svg width="39" height="23" viewBox="0 0 39 23" fill="none" xmlns="http://www.w3.org/2000/svg">
<path d="M37.3203 1.79688C37.5312 0.953125 37.3203 0.25 36.0547 0.25H31.9062C30.8516 0.25 30.3594 0.8125 30.0781 1.44531C30.0781 1.44531 27.9688 6.57812 25.0156 9.95312C24.0312 10.8672 23.6094 11.2188 23.0469 11.2188C22.8359 11.2188 22.4141 10.8672 22.4141 10.0234V1.79688C22.4141 0.742188 22.1328 0.25 21.2188 0.25H14.75C14.0469 0.25 13.6953 0.742188 13.6953 1.23438C13.6953 2.21875 15.1719 2.42969 15.3125 5.24219V11.3594C15.3125 12.6953 15.1016 12.9766 14.5391 12.9766C13.1328 12.9766 9.75781 7.77344 7.71875 1.86719C7.29688 0.742188 6.875 0.25 5.82031 0.25H1.67188C0.546875 0.25 0.265625 0.8125 0.265625 1.44531C0.265625 2.57031 1.67188 7.98438 6.80469 15.2266C10.25 20.1484 15.1016 22.75 19.4609 22.75C22.0625 22.75 22.4141 22.1875 22.4141 21.2031C22.4141 16.4922 22.2031 16 23.4688 16C24.1016 16 25.1562 16.3516 27.6172 18.7422C30.4297 21.5547 30.9219 22.75 32.4688 22.75H36.6172C37.8125 22.75 38.375 22.1875 38.0234 20.9922C37.25 18.6016 31.9766 13.5391 31.6953 13.1875C31.0625 12.4141 31.2734 12.0625 31.6953 11.3594C31.6953 11.3594 36.7578 4.1875 37.3203 1.79688Z" fill="#545973"/>
</svg>
